<svg width="54" height="54" viewBox="0 0 54 54" fill="none" xmlns="http://www.w3.org/2000/svg">
<rect x="8" y="21" width="6" height="16" rx="1" fill="#54A0FF"/>
<path d="M3 25.9877C3 24.3376 4.33762 23 5.98765 23C5.99447 23 6 23.0055 6 23.0123V34.9877C6 34.9945 5.99447 35 5.98765 35C4.33762 35 3 33.6624 3 32.0123V25.9877Z" fill="#54A0FF"/>
<path d="M51 25.9877C51 24.3376 49.6624 23 48.0123 23C48.0055 23 48 23.0055 48 23.0123V34.9877C48 34.9945 48.0055 35 48.0123 35C49.6624 35 51 33.6624 51 32.0123V25.9877Z" fill="#54A0FF"/>
<rect x="40" y="21" width="6" height="16" rx="1" fill="#54A0FF"/>
<path d="M10.8919 19.5C10.8919 17.7557 11.2904 16.0198 12.0751 14.3885C12.8604 12.7559 14.021 11.2527 15.5066 9.97346C16.9926 8.69382 18.7714 7.66655 20.7473 6.9618C22.7231 6.25705 24.8485 5.89189 27 5.89189C29.1515 5.89189 31.2769 6.25705 33.2527 6.9618C35.2286 7.66655 37.0074 8.69382 38.4934 9.97346C39.979 11.2527 41.1396 12.7559 41.9249 14.3885C42.7096 16.0198 43.1081 17.7557 43.1081 19.5" stroke="#54A0FF" stroke-width="3.78378"/>
<path d="M10.9999 37C10.3332 46.5 11.3999 47.5 20.9999 47.5" stroke="#54A0FF" stroke-width="2"/>
<rect x="20" y="45" width="13" height="5" rx="2.5" fill="#54A0FF"/>
</svg>
