<svg width="54" height="54" viewBox="0 0 54 54" fill="none" xmlns="http://www.w3.org/2000/svg">
<g clip-path="url(#clip0_1_648)">
<circle cx="27.7419" cy="28" r="22.7419" fill="#FFE54A"/>
<path d="M26.4905 41.9668V39.1383C25.2871 39.0151 24.2068 38.6929 23.2498 38.1717C22.3022 37.6506 21.5583 36.9115 21.0182 35.9544C20.4876 34.9973 20.2317 33.8129 20.2507 32.401L20.2791 32.3299H24.7138C24.7138 33.1353 24.837 33.7939 25.0833 34.3056C25.3392 34.8078 25.685 35.1774 26.1209 35.4143C26.5568 35.6417 27.0543 35.7554 27.6134 35.7554C28.1156 35.7554 28.5373 35.6606 28.8784 35.4711C29.2195 35.2721 29.4801 34.9973 29.6601 34.6467C29.8402 34.2961 29.9302 33.8887 29.9302 33.4244C29.9302 32.9221 29.8449 32.4957 29.6744 32.1451C29.5038 31.785 29.2243 31.4676 28.8358 31.1928C28.4567 30.9085 27.9356 30.629 27.2722 30.3542C25.8414 29.8141 24.6569 29.255 23.7188 28.677C22.7902 28.0895 22.0985 27.4025 21.6436 26.616C21.1888 25.8295 20.9614 24.8582 20.9614 23.7022C20.9614 22.1008 21.4873 20.7884 22.5391 19.765C23.5909 18.7321 25.0028 18.1257 26.7748 17.9456V14.9181H29.049V18.0167C30.7262 18.2631 32.0528 18.9595 33.0288 20.1061C34.0048 21.2432 34.4833 22.7167 34.4644 24.5266L34.4502 24.6119H29.9871C29.9871 23.5506 29.7739 22.7451 29.3474 22.1955C28.921 21.6365 28.3572 21.3569 27.656 21.3569C26.9264 21.3569 26.3815 21.5749 26.0214 22.0107C25.6708 22.4466 25.4955 23.0199 25.4955 23.7306C25.4955 24.1854 25.5713 24.5834 25.7229 24.9246C25.884 25.2562 26.1588 25.5642 26.5473 25.8485C26.9453 26.1232 27.4807 26.398 28.1535 26.6728C29.5843 27.2698 30.7641 27.8668 31.6927 28.4638C32.6308 29.0513 33.3273 29.7335 33.7821 30.5105C34.2464 31.2876 34.4786 32.2494 34.4786 33.3959C34.4786 35.0352 33.9622 36.3524 32.9293 37.3473C31.8964 38.3423 30.5082 38.9298 28.7647 39.1098V41.9668H26.4905Z" fill="#EDAE02"/>
<path d="M41.198 7.09903C41.198 6.49205 41.6901 6 42.2971 6H51.0893C51.6962 6 52.1883 6.49205 52.1883 7.09902V16.9902H54.3863L46.6932 30.1785L39 16.9902H41.198V7.09903Z" fill="#DE1F55"/>
</g>
<defs>
<clipPath id="clip0_1_648">
<rect width="54" height="54" fill="white"/>
</clipPath>
</defs>
</svg>
