<svg width="54" height="54" viewBox="0 0 54 54" fill="none" xmlns="http://www.w3.org/2000/svg">
<path d="M27.7086 51.1175C27.41 51.1199 27.1113 51.0489 26.8442 50.9094L18.1592 46.4159C15.6924 45.1365 13.7645 43.7033 12.2591 42.0336C8.96432 38.382 7.1336 33.6946 7.10204 28.8322L7.00006 12.8284C6.99035 10.9813 8.18007 9.32345 9.96224 8.70145L25.9094 3.139C26.8564 2.80318 27.9126 2.79608 28.8765 3.12245L44.8844 8.49334C46.6763 9.09168 47.8878 10.7377 47.8975 12.5824L47.9995 28.5981C48.0311 33.4534 46.2611 38.1621 43.0197 41.8515C41.5289 43.5448 39.618 44.9993 37.1779 46.3L28.573 50.8999C28.3035 51.0418 28.0072 51.1151 27.7086 51.1175Z" fill="#2AB69B"/>
<path d="M25.857 32.5971C25.3908 32.6018 24.9247 32.4315 24.5653 32.0862L19.9448 27.6401C19.2285 26.9519 19.2213 25.8309 19.9278 25.1332C20.6368 24.4355 21.7877 24.4284 22.5039 25.1166L25.8303 28.3141L33.9545 20.3062C34.661 19.6086 35.8143 19.6038 36.5306 20.2921C37.2444 20.9803 37.2517 22.1013 36.5451 22.7989L27.1414 32.0697C26.787 32.4197 26.3232 32.5947 25.857 32.5971Z" fill="white"/>
</svg>
