<svg width="153" height="46" viewBox="0 0 153 46" fill="none" xmlns="http://www.w3.org/2000/svg">
<g clip-path="url(#clip0_1_530)">
<path d="M65.8426 10.9062H65.817L63.7737 21.5824H60.9642L58.3079 8.55635H60.5555L62.3945 18.5941H62.42L64.3867 8.55635H67.2984L69.2396 18.5941H69.2651L71.1807 8.55635H73.3517L70.6699 21.5824H67.8092L65.8426 10.9062ZM76.7232 11.8001C78.6899 11.8001 80.9375 12.8218 80.9375 16.7296C80.9375 20.7651 78.6899 21.6846 76.7232 21.6846C74.7565 21.6846 72.4833 20.7396 72.4833 16.7296C72.5089 12.8218 74.782 11.8001 76.7232 11.8001ZM76.7232 20.0755C78.2046 20.0755 78.5622 18.3642 78.5622 16.7551C78.5622 15.146 78.2301 13.4603 76.7232 13.4603C75.2162 13.4603 74.8842 15.146 74.8842 16.7551C74.8842 18.3642 75.2418 20.0755 76.7232 20.0755ZM82.0869 13.5369C82.0869 13.0005 82.0613 12.4897 82.0102 11.9534H84.1046C84.1302 12.5408 84.1813 13.1283 84.1813 13.7157H84.2068C84.4878 12.975 85.2029 11.8256 86.6588 11.8256C86.7865 11.8256 86.9142 11.8512 87.0419 11.8767V14.0477C86.8376 13.9967 86.6077 13.9456 86.4034 13.9456C85.4583 13.9456 84.4111 14.533 84.4111 16.3209V21.5824H82.1124L82.0869 13.5369ZM88.038 7.58578H90.3623V21.5569H88.038V7.58578ZM99.787 7.58578V19.9223C99.787 20.4586 99.8126 21.0205 99.8637 21.5569H97.6926C97.6416 21.0716 97.616 20.5608 97.616 20.0755H97.5649C97.1818 20.8928 96.4922 21.7102 95.0108 21.7102C92.6355 21.7102 91.6393 19.437 91.6393 16.7807C91.6393 13.6391 92.8909 11.8256 94.9597 11.8256C96.0325 11.7746 97.003 12.3876 97.4372 13.3581H97.4628V7.58578H99.787ZM95.6238 19.9989C96.9775 19.9989 97.4372 18.5175 97.4372 16.7296C97.4372 14.8651 96.9264 13.5114 95.6493 13.5114C94.3723 13.5114 93.9125 14.7629 93.9125 16.6785C93.9381 18.9006 94.2956 19.9989 95.6238 19.9989ZM106.658 8.55635H109.059V13.8434H112.915V8.55635H115.291V21.5824H112.915V15.8101H109.059V21.5569H106.658V8.55635ZM123.745 21.0972C122.851 21.5058 121.855 21.7102 120.884 21.7102C117.794 21.7102 116.44 19.4881 116.44 16.9084C116.44 14.0477 117.947 11.8256 120.399 11.8256C122.468 11.8256 124.23 13.0261 124.23 16.9595V17.4192H118.688C118.688 19.0539 119.352 20.05 121.14 20.05C122.544 20.05 123.234 19.6158 123.668 19.3093L123.745 21.0972ZM121.982 15.9378C121.982 14.2521 121.421 13.3837 120.373 13.3837C119.147 13.3837 118.662 14.6607 118.662 15.9378H121.982ZM125.712 12.5153C126.657 12.0555 127.704 11.8001 128.751 11.8001C131.739 11.8001 132.429 13.256 132.429 15.6568V19.8456C132.429 20.4075 132.48 20.9695 132.557 21.5314H130.462C130.36 21.0972 130.309 20.663 130.335 20.2288H130.309C129.722 21.0205 129.006 21.6846 127.627 21.6846C126.146 21.6846 124.766 20.663 124.766 18.8751C124.766 16.2698 126.886 15.6058 129.824 15.6058H130.283V15.2482C130.283 14.3032 129.824 13.4092 128.496 13.4092C127.55 13.4348 126.631 13.7668 125.865 14.3542L125.712 12.5153ZM130.258 16.8573H130.054C128.087 16.8573 126.912 17.266 126.912 18.6707C126.861 19.437 127.448 20.101 128.215 20.1521H128.393C129.773 20.1521 130.283 19.1305 130.283 17.4192V16.8573H130.258ZM134.549 7.58578H136.848V21.5569H134.549V7.58578ZM139.504 9.98667L141.803 9.27151V11.9534H143.718V13.6391H141.803V18.6452C141.803 19.6668 142.186 19.9733 142.85 19.9733C143.156 19.9733 143.463 19.8967 143.718 19.769V21.4037C143.233 21.608 142.697 21.7102 142.16 21.7102C140.449 21.7102 139.478 20.9184 139.478 18.9006V13.6646H137.946V11.9789H139.478V9.98667H139.504ZM144.459 7.58578H146.758V13.2049H146.809C147.217 12.6174 147.754 11.8256 149.184 11.8256C151.355 11.8256 152.019 13.4348 152.019 15.3759V21.5569H149.72V15.8101C149.72 14.3287 149.337 13.7157 148.392 13.7157C147.192 13.7157 146.758 14.7374 146.758 15.9633V21.5569H144.459V7.58578ZM63.5949 25.0305C66.3023 25.0305 68.7798 27.0483 68.7798 31.7224C68.7798 36.3964 66.3023 38.4142 63.5949 38.4142C60.8875 38.4142 58.41 36.3964 58.41 31.7224C58.41 27.0483 60.8875 25.0305 63.5949 25.0305ZM63.5949 36.6008C65.1019 36.6008 66.3278 35.3237 66.3278 31.7224C66.3278 28.121 65.1019 26.8695 63.5949 26.8695C62.088 26.8695 60.862 28.1466 60.862 31.7224C60.862 35.2982 62.088 36.6008 63.5949 36.6008ZM69.7504 30.2154C69.7504 29.6791 69.7248 29.1682 69.6738 28.6319H71.7682C71.7937 29.2193 71.8448 29.8068 71.8448 30.3942H71.8703C72.1513 29.6535 72.892 28.5042 74.3223 28.5042C74.45 28.5042 74.5777 28.5297 74.7054 28.5552V30.7263C74.5011 30.6752 74.2712 30.6241 74.0413 30.6241C73.0963 30.6241 72.0491 31.2115 72.0491 32.9994V38.261H69.7504V30.2154ZM75.8292 39.7424C76.6976 40.2532 77.6682 40.5341 78.6643 40.5597C80.8353 40.5597 81.1929 39.0527 81.1929 37.5458V36.6263H81.1674C80.7843 37.367 80.1457 38.261 78.6388 38.261C77.3106 38.261 75.2929 37.367 75.2929 33.4847C75.2929 30.8284 76.2379 28.5042 78.7665 28.5042C80.1713 28.5042 80.8098 29.2959 81.2951 30.1388H81.3717C81.3717 29.628 81.4228 29.1427 81.4483 28.6574H83.5427C83.5172 29.1682 83.4661 29.6535 83.4661 30.1643V37.2393C83.4661 40.2532 82.5466 42.3731 79.0219 42.3731C77.8981 42.3731 76.7743 42.1688 75.7271 41.7857L75.8292 39.7424ZM79.1752 36.5497C80.631 36.5497 81.2185 35.5025 81.2185 33.3315C81.2185 31.3137 80.4522 30.241 79.3539 30.2665C78.128 30.2921 77.6682 31.4159 77.6682 33.357C77.6682 35.6047 78.3834 36.5497 79.1752 36.5497ZM85.5094 29.1938C86.4544 28.7085 87.5016 28.4786 88.5488 28.4786C91.5372 28.4786 92.2268 29.9345 92.2268 32.3354V36.5241C92.2268 37.0861 92.2779 37.648 92.3545 38.2099H90.2601C90.1579 37.7757 90.1069 37.3415 90.1324 36.9073H90.1069C89.5194 37.699 88.8042 38.3631 87.425 38.3631C85.9436 38.3631 84.5644 37.3415 84.5644 35.5536C84.5644 32.9484 86.6843 32.2843 89.6216 32.2843H90.0813V31.9267C90.0813 30.9817 89.6216 30.0877 88.2934 30.0877C87.3484 30.1133 86.4289 30.4453 85.6627 31.0328L85.5094 29.1938ZM90.0558 33.5358H89.8514C87.8848 33.5358 86.7099 33.9445 86.7099 35.3492C86.6588 36.1155 87.2462 36.7796 88.0125 36.8306H88.1913C89.5705 36.8306 90.0813 35.809 90.0813 34.0977L90.0558 33.5358ZM94.0913 30.2154C94.0913 29.6791 94.0658 29.1682 94.0147 28.6319H96.1857C96.2112 29.1171 96.2623 29.628 96.2623 30.1133H96.2879C96.6199 29.5258 97.284 28.5042 98.842 28.5042C101.013 28.5042 101.677 30.1133 101.677 32.0544V38.2354H99.3528V32.4631C99.3528 30.9817 98.9697 30.3687 98.0247 30.3687C96.8242 30.3687 96.39 31.3903 96.39 32.6163V38.2099H94.0913V30.2154ZM103.439 24.5452H105.84V26.8184H103.439V24.5452ZM103.491 28.6319H105.789V38.2354H103.491V28.6319ZM107.603 36.2432L111.715 30.3942H107.73V28.6319H114.014V30.5985L109.978 36.4731H114.141V38.2354H107.577V36.2432H107.603ZM115.904 29.1938C116.849 28.7085 117.896 28.4786 118.943 28.4786C121.931 28.4786 122.621 29.9345 122.621 32.3354V36.5241C122.621 37.0861 122.672 37.648 122.749 38.2099H120.654C120.552 37.7757 120.501 37.3415 120.527 36.9073H120.501C119.914 37.699 119.198 38.3631 117.819 38.3631C116.338 38.3631 114.959 37.3415 114.959 35.5536C114.959 32.9484 117.079 32.2843 120.016 32.2843H120.476V31.9267C120.476 30.9817 120.016 30.0877 118.688 30.0877C117.743 30.1133 116.823 30.4453 116.057 31.0328L115.904 29.1938ZM120.45 33.5358H120.246C118.279 33.5358 117.104 33.9445 117.104 35.3492C117.053 36.1155 117.64 36.7796 118.407 36.8306H118.585C119.965 36.8306 120.476 35.809 120.476 34.0977V33.5358H120.45ZM125.124 26.6652L127.423 25.95V28.6319H129.338V30.3176H127.423V35.2982C127.423 36.3198 127.806 36.6263 128.47 36.6263C128.776 36.6263 129.083 36.5752 129.338 36.422V38.0566C128.853 38.2865 128.317 38.3887 127.78 38.3631C126.069 38.3631 125.099 37.5713 125.099 35.5791V30.3176H123.566V28.6319H125.099L125.124 26.6652ZM130.743 24.5452H133.119V26.8184H130.743V24.5452ZM130.794 28.6319H133.119V38.2354H130.82L130.794 28.6319ZM138.61 28.4786C140.577 28.4786 142.824 29.5003 142.824 33.4081C142.824 37.4436 140.577 38.3631 138.61 38.3631C136.643 38.3631 134.37 37.4436 134.37 33.4081C134.396 29.5258 136.669 28.4786 138.61 28.4786ZM138.61 36.754C140.091 36.754 140.449 35.0427 140.449 33.4336C140.449 31.8245 140.117 30.1388 138.61 30.1388C137.103 30.1388 136.771 31.8245 136.771 33.4336C136.771 35.0427 137.129 36.754 138.61 36.754ZM144.663 30.2154C144.663 29.6791 144.638 29.1682 144.587 28.6319H146.758C146.783 29.1171 146.834 29.628 146.834 30.1133H146.86C147.192 29.5258 147.856 28.5042 149.414 28.5042C151.585 28.5042 152.249 30.1133 152.249 32.0544V38.2354H149.95V32.4631C149.95 30.9817 149.567 30.3687 148.622 30.3687C147.422 30.3687 146.987 31.3903 146.987 32.6163V38.2099H144.689L144.663 30.2154ZM44.3623 8.42864C45.3584 9.62909 47.0952 10.3187 48.1168 11.5191C47.3761 7.99444 44.6688 5.10827 41.4506 4.41865C43.0341 5.59355 43.3661 7.2282 44.3623 8.42864ZM5.74372 17.3681C7.96582 12.5408 11.2607 13.5625 12.6654 8.99055C11.8481 10.3698 8.24677 10.9572 6.58658 14.5586C7.45499 12.4131 7.02078 9.1438 8.4511 7.35591C4.13461 10.5741 5.97359 15.7335 5.74372 17.3681ZM9.72817 28.9128C10.1368 30.7773 8.96193 33.5103 10.8264 36.0899C8.91085 33.9445 4.82423 33.3826 3.16404 30.1133C5.23289 38.1077 10.6477 36.4731 13.0741 38.2099C11.0819 35.3237 12.7165 33.4081 9.72817 28.9128ZM9.11518 33.9445C7.91473 29.4747 10.0347 27.9167 8.42556 23.6258C8.27231 26.0522 6.63766 27.2271 7.73594 31.6457C5.82034 27.8912 2.85754 26.4864 1.98914 23.9323C2.04022 30.9561 7.68486 32.0033 9.11518 33.9445ZM17.7737 41.4281C16.1135 39.1294 17.2373 37.8268 12.5888 33.6635C13.5849 35.196 12.5633 37.1116 15.7049 40.0744C12.6399 38.261 8.37448 39.0272 6.33117 36.6008C9.85588 43.3437 16.0369 40.5852 17.7737 41.4281ZM40.3778 40.0744C43.5194 37.0861 42.4977 35.1705 43.4939 33.6635C38.8198 37.8268 39.9692 39.1294 38.2834 41.4281C40.0458 40.5852 46.2268 43.3437 49.726 36.6008C47.7082 39.0527 43.4428 38.261 40.3778 40.0744ZM45.2562 36.0899C47.1207 33.5103 45.9458 30.8029 46.329 28.9128C43.3406 33.4081 44.9753 35.3237 42.983 38.2099C45.435 36.4731 50.8242 38.1077 52.8931 30.1133C51.2329 33.3826 47.1718 33.9445 45.2562 36.0899ZM37.7981 41.7601C36.1379 41.3259 34.4267 41.045 32.6899 40.9939C31.1063 40.9683 29.5227 41.2238 28.0413 41.7857C26.5599 41.2238 24.9764 40.9683 23.3928 40.9939C21.656 41.045 19.9447 41.3259 18.2845 41.7601C15.475 42.5008 13.0485 43.0883 10.9286 42.0155C12.9464 43.8034 15.3217 44.4675 18.7443 44.0844C21.5794 43.7779 23.8781 42.3476 26.5599 42.3731H26.6621C24.9764 43.216 23.4694 44.3909 22.2434 45.8212L23.5461 46C23.5461 46 24.8997 43.2671 28.0413 42.5519C31.1829 43.2671 32.5366 46 32.5366 46L33.8392 45.8212C32.6132 44.3909 31.1063 43.216 29.4206 42.3731H29.5227C32.2046 42.3476 34.5033 43.7779 37.3384 44.0844C40.7609 44.442 43.1107 43.8034 45.154 42.0155C43.0341 43.0883 40.6077 42.5008 37.7981 41.7601ZM8.62989 18.7729C7.48053 20.995 5.66709 21.5058 5.87142 26.0777C4.90085 22.0166 2.57659 20.4842 2.60213 17.9045C0.993022 24.6985 5.28397 25.4903 6.40779 28.3509C6.229 24.2643 8.83422 23.447 8.62989 18.7729ZM10.239 13.5369C9.83034 14.0988 9.54938 14.3542 8.47664 15.2226C6.86754 16.4997 5.74372 18.3132 5.3606 20.3309C5.46276 17.8279 3.93028 14.2521 4.95193 11.6469C0.993023 17.2404 5.18181 20.5863 5.33506 22.6296C6.33117 18.7218 8.70652 18.6963 10.239 13.5369ZM50.7221 20.3309C50.3134 18.3132 49.2151 16.4997 47.606 15.2226C46.5333 14.3287 46.2523 14.0988 45.8437 13.5369C47.3761 18.6963 49.7515 18.7218 50.7731 22.6296C50.9264 20.6119 55.1152 17.266 51.1563 11.6469C52.1779 14.2521 50.6454 17.8279 50.7221 20.3309ZM54.0935 23.9323C53.2251 26.5119 50.2623 27.8912 48.3467 31.6457C49.445 27.2271 47.8104 26.0522 47.6571 23.6258C46.048 27.9167 48.1679 29.4747 46.9675 33.9445C48.3978 32.0033 54.0424 30.9561 54.0935 23.9323ZM47.4528 18.7729C47.2229 23.447 49.8537 24.2643 49.6749 28.3509C50.7731 25.5158 55.0896 24.6985 53.4805 17.9045C53.5061 20.5097 51.1818 22.0166 50.2112 26.1033C50.4156 21.4803 48.6277 20.995 47.4528 18.7729ZM11.7204 8.42864C12.7165 7.2282 13.0485 5.59355 14.6321 4.41865C11.3884 5.10827 8.68097 7.9689 7.94027 11.4936C8.96193 10.2932 10.7243 9.60355 11.7204 8.42864ZM43.4428 8.93947C44.8476 13.5369 48.1424 12.5153 50.3645 17.317C50.1346 15.7079 51.9736 10.523 47.6571 7.35591C49.113 9.11826 48.6788 12.4131 49.5216 14.5586C47.8359 10.9572 44.2346 10.3698 43.4428 8.93947ZM32.2046 11.5702C31.3617 11.2127 30.4678 10.9828 29.5738 10.8551V11.4425C30.4167 11.5702 31.234 11.8001 32.0002 12.1066C32.1024 11.9278 32.179 11.749 32.2046 11.5702ZM31.5405 5.87451L31.7193 5.72126L31.3873 5.56801L30.4933 5.54247L30.2634 5.69572L29.7526 5.64464V5.77234C30.0846 5.79788 30.4167 5.82342 30.6721 5.87451L31.1063 5.84897L31.5405 5.87451ZM29.8548 24.9284C29.8548 24.7751 29.6504 24.6219 29.3695 24.4942H29.3184C29.3184 24.6219 29.2929 25.2093 29.2929 25.5158C29.6249 25.337 29.8548 25.1838 29.8548 24.9284ZM19.6127 13.7157C19.6382 13.6135 19.6638 13.4858 19.6893 13.3837C19.5616 13.4092 19.4594 13.4348 19.3317 13.4092L19.6127 13.7157ZM15.5005 9.60355L17.5949 11.6979C15.0663 14.3287 13.636 17.8534 13.5849 21.5058H10.6221C10.6732 17.0361 12.41 12.7962 15.5005 9.60355ZM14.2235 25.8989L14.0447 25.8734L13.8659 25.6946L13.023 25.618L13.2784 25.9756L12.5122 25.8223L12.7165 25.6435L12.5377 25.4647L11.9758 25.6946L11.7715 26.0522L11.8481 26.8951L12.4866 28.4275L12.7931 28.9128L12.9719 28.9639L12.4866 28.0444L12.3845 27.5847L12.4866 27.4825L12.41 27.2271L12.691 27.2782L13.1507 27.9422L13.2529 27.9933V27.508L13.4317 27.6102L13.4828 27.8656L13.9425 27.9933L14.1468 27.8401L14.2235 27.8912V28.2487L14.4278 28.5042L14.6832 28.5552L15.2451 29.4747L15.5771 29.5769L15.6793 29.1427C16.2668 30.0877 16.9308 30.9817 17.7226 31.7735L15.6282 33.8678C12.5148 30.7278 10.7232 26.514 10.6221 22.0933H13.5849C13.6105 23.3703 13.8403 24.673 14.2235 25.8989ZM17.1352 22.0677C17.1352 22.3487 17.1607 22.6296 17.2118 22.9361L16.8542 23.0128L16.7776 23.3703L16.0113 24.3409L16.0369 25.6691L15.2706 25.9245H14.8364C14.4278 24.673 14.2235 23.3959 14.1724 22.0677H17.1352ZM17.7992 30.4198L18.4633 30.8029L18.591 30.905L18.1057 31.3903C17.8759 31.1605 17.6715 30.9306 17.4672 30.6752L17.7992 30.4198ZM20.5066 14.6097L22.601 16.704C22.1668 17.1893 21.7837 17.7257 21.5027 18.3132H21.3495L21.043 18.3898H20.9408L20.6343 18.6707L21.043 18.6196L21.4006 18.543L21.3239 18.6452L21.0175 18.8495H20.8642L20.4045 19.2071L19.9703 19.156L19.3317 20.3565L19.4594 20.5863L19.1019 20.995L19.0508 21.5058H17.7226C17.7482 18.9261 18.7443 16.4742 20.5066 14.6097ZM22.6521 23.2682L22.8054 23.1916L23.1885 23.4725L23.0097 23.6002L23.4439 23.8812L23.4183 23.5747L23.6482 23.1916L23.9036 23.447L24.159 23.8045L23.6993 23.9323L23.9036 24.3409L24.2101 24.1621L24.159 24.0344L24.3889 23.8812L24.5166 23.2426C24.6954 23.6258 24.9253 23.9833 25.2062 24.2898L23.1118 26.3842C22.0902 25.3115 21.4517 23.9323 21.2729 22.4509L21.7071 22.9106H22.1157L22.6521 23.2682ZM19.6382 21.0461L19.6893 20.4586L20.0469 20.2543L20.6854 20.3565L20.7876 20.4586C20.7365 20.7907 20.711 21.1482 20.6854 21.4803H19.9703L19.6382 21.0461ZM18.6677 23.0894L18.3867 23.5236H17.9014L17.8759 23.498C17.7992 23.0383 17.7482 22.553 17.7226 22.0933H18.6166L18.4122 22.8084L18.6677 23.0894ZM20.6343 28.8617C20.43 28.6319 20.2001 28.402 20.0213 28.1721L20.1235 27.4314L19.817 26.7163L19.7404 25.5924L19.3828 24.9028L19.4594 24.4686L19.0252 23.6513L18.6677 23.4725L18.8209 23.0383L18.6677 22.7063L18.8209 22.3231H19.2296L19.3828 22.0933H20.0724L20.1746 22.2976L20.0213 22.9872L19.9447 23.1149L20.2001 23.6768L20.0213 23.779L19.8936 23.6258L19.8426 23.6768L19.9703 24.0089L20.1746 24.392H20.2768L20.3278 24.0344L20.2257 23.9067V23.6768L20.2001 23.1916L20.3534 22.3231L20.2001 22.0933H20.6854C20.7876 23.8556 21.5027 25.5158 22.7287 26.7929L20.6343 28.8617ZM38.4622 31.7224C40.9908 29.1171 42.4467 25.6691 42.5233 22.0677H45.4861C45.3839 26.4608 43.6216 30.6752 40.5311 33.8168L38.4622 31.7224ZM37.6449 30.905L37.8748 30.6496L37.6449 29.5003L37.4916 29.4492L37.5938 29.2449L37.1085 29.0916L37.0064 29.5003L36.9553 30.0111L36.8531 30.1133L35.9592 29.2193C37.8237 27.2782 38.8964 24.7496 38.9986 22.0677H41.9614C41.8592 25.5414 40.48 28.8362 38.0535 31.3137L37.6449 30.905ZM35.0397 33.6891L35.3206 33.1016L35.2185 32.8462L35.6271 32.4886V32.2843L35.2695 32.0544L35.5505 31.467L35.9847 30.905L35.5505 30.4453H35.2185L35.0141 30.1133C35.1929 29.96 35.3717 29.8068 35.525 29.6535L37.6193 31.7479C36.8531 32.4886 35.9847 33.1527 35.0397 33.6891ZM34.631 27.9167L34.35 27.6357L34.5544 27.3548L34.8353 26.7929L34.7332 26.6396L34.912 26.231L34.8864 25.8479L34.7843 25.4647L34.5288 25.3881L34.4267 25.5924L34.2734 25.5414C34.5033 25.2093 34.7076 24.8262 34.8864 24.4686L35.1418 24.3665L35.2951 24.1621L35.3717 24.2387L35.5505 24.0344L35.3972 23.8556L35.525 23.8301L35.7548 23.9323H36.2146L36.4955 23.779L37.2107 23.5747L37.083 23.3448L37.0319 23.0638L37.415 23.2426L37.5683 23.166L37.4916 22.8595L37.0064 23.0383L36.4955 22.9361L36.0869 22.1188H38.36C38.2579 24.6474 37.2362 27.0483 35.4994 28.8617L35.1929 28.5552L35.3206 28.1466L35.0908 27.2271L34.631 27.9167ZM33.5583 16.7807L35.6527 14.6863C36.1379 15.2226 36.5721 15.8101 36.9553 16.4231L36.6999 16.4997L36.7254 16.9595L37.4916 17.4447C37.696 17.879 37.8492 18.3132 37.9769 18.7729L37.8492 18.9772L37.5683 19.1816L37.4916 19.6158L37.2873 19.7179L37.1341 19.9223L36.9808 19.8456H36.6999L36.8531 19.6158L36.9808 19.0283L37.1851 18.9006L36.6232 18.3642L36.2146 18.5175L36.1124 18.9261L35.857 19.2071L35.576 18.9772L35.4739 18.7218L35.6271 18.6196L35.7037 18.7729L35.8314 18.7218L35.7804 18.4664H35.6016V18.5686L35.4739 18.5941L34.8353 17.8279L34.6055 17.6491L34.6821 17.5725L34.8864 17.4958L34.6821 17.4192C34.6821 17.4192 34.4522 17.4703 34.4267 17.4703L34.5544 17.6491H34.2223C34.018 17.317 33.8137 17.0361 33.5583 16.7807ZM33.8903 28.1977L33.2518 28.0189L33.0474 28.0955L32.6899 27.8145L32.3578 27.6868C32.5366 27.5591 32.6899 27.4314 32.8431 27.3037L33.3795 27.6868L33.7881 27.8912L33.9925 28.0955L33.8903 28.1977ZM32.7665 18.3642L33.0219 18.3132V18.2621L32.7665 18.0833L32.8431 17.5214L33.1496 17.1893C33.3539 17.4192 33.5327 17.6491 33.7115 17.9045L33.6094 18.2365L33.3284 18.0322L33.0985 18.0833L33.2007 18.2876H33.3029L33.1751 18.5941L33.0985 18.4664L32.7665 18.3642ZM36.3167 20.4075L36.8531 20.1266L37.3895 20.05L37.5172 19.7946L37.8237 19.6158L37.9514 19.3603L38.0535 18.9261C38.1046 19.0794 38.1302 19.2326 38.1813 19.3859L37.9003 20.2288V20.5097L38.2579 19.9223C38.3345 20.4331 38.3856 20.9695 38.4111 21.4803H35.8059L35.7548 21.2504L36.0613 21.0205L36.1124 20.8673L36.2401 20.7651L36.5977 20.714L36.6232 20.5608L36.3167 20.4075ZM36.9042 13.4603L37.6193 13.4858L37.7981 13.6902L37.7215 13.9967L38.7176 14.6097L38.922 14.5841L40.1735 16.04L40.6843 15.8612C41.5016 17.6235 41.9358 19.5647 41.9614 21.5058H38.9986C38.9986 20.7396 38.8964 19.9989 38.7176 19.2582L38.8453 19.0794L39.0241 18.1344L38.8964 17.1382L38.5388 15.9889L37.7215 14.7884L37.9258 14.8906L38.028 14.7884L37.3639 14.3287L37.3128 14.4819L37.9769 15.427L38.36 16.1932L38.6155 16.9595L38.6921 17.4703L38.8198 18.3387L38.5644 18.3642C38.5644 18.3642 38.2834 17.8279 38.1813 17.598L38.309 17.3937L38.0535 17.0361V16.704L37.8748 16.4742L37.6449 16.4997C37.5683 16.3465 37.4916 16.1932 37.3895 16.0655L37.5427 16.1421L37.5938 16.0911L37.5172 15.9123L37.7215 15.8101L37.6449 15.7079L37.3639 15.8101L37.4661 15.3504L37.2873 15.2482L37.1341 15.6058C36.802 15.1205 36.4444 14.6607 36.0613 14.2265L36.9042 13.4603ZM40.6843 9.65463C43.7493 12.8473 45.4605 17.0872 45.5116 21.5058H42.5488C42.5233 19.3093 42.0125 17.1382 41.0163 15.1716L41.0419 15.1205L41.2462 15.2226L41.2973 15.0694L40.7609 14.1499L40.1224 13.2815L39.3817 12.6685C39.1263 12.362 38.8709 12.0555 38.5899 11.749L40.6843 9.65463ZM28.0669 39.6913C38.028 39.6913 46.0991 31.5947 46.0735 21.6335C46.0735 12.3876 39.0752 4.64852 29.8803 3.70349L29.8548 3.80566C29.8292 3.98445 29.7781 4.13769 29.7526 4.29094C33.7115 4.67406 37.415 6.41088 40.2501 9.19488L38.2579 11.1871L38.3345 10.8295L38.0791 10.7018L37.7471 10.7274L37.8237 10.4975L37.5938 9.68017L37.1085 9.1438L35.5505 8.32648L35.4228 8.47973L35.1418 8.55635C35.6782 9.32259 35.9592 10.2421 35.9592 11.1616V11.5191L36.7254 12.4897L36.3678 12.5663L36.5977 12.9239L35.9081 13.6135L35.6271 13.1027C35.4994 13.4603 35.3206 13.8179 35.1163 14.1244L35.2695 14.2521L33.1496 16.3465C33.0219 16.2188 32.8942 16.1166 32.7665 15.9889C32.5622 16.0911 32.3578 16.1677 32.1535 16.2443L32.3323 16.372L32.2301 16.4742L31.9747 16.6019L31.8725 16.8573L31.7193 16.704L31.2851 16.8573L31.4128 17.0616L31.7193 16.985L31.9236 17.0105L31.9492 16.9084L32.1024 16.8318L32.1535 16.7551L32.4344 16.6785H32.6388L32.7665 16.7807L31.9492 17.6235L31.8981 17.5469L31.0297 17.7002L30.8253 17.9045L30.6465 17.93L31.1829 17.4192L30.9786 17.317L30.4678 17.9811L30.621 17.9556V18.211L30.7998 18.2876L30.8253 18.543L30.5188 18.4919L30.2123 18.543L29.4461 18.1599C29.4461 18.1599 29.395 20.2032 29.395 21.2249C31.1829 21.8379 33.0985 22.7063 33.0985 25.005C33.1241 25.9756 32.6132 26.8951 31.7959 27.4314L31.7448 27.457L31.6937 27.508C30.9786 27.9933 30.0336 28.2487 29.2162 28.5042L29.1907 30.1133C30.4933 30.7518 32.0513 31.6968 31.8981 34.3531C31.8725 35.0172 31.6171 35.196 31.4128 35.2471C30.6465 35.4259 29.8548 35.5536 29.0885 35.6047V36.1921C32.46 35.9622 35.6271 34.5575 38.0791 32.2332L40.1735 34.3276C33.4561 40.8151 22.8053 40.8151 16.0624 34.3787L18.1568 32.2843C20.5833 34.5575 23.7248 35.9367 27.0452 36.1921V35.6047C23.8781 35.3492 20.9153 34.0466 18.6166 31.8501L19.1529 31.2882L19.9192 31.3648L20.3278 30.9306L21.4006 30.9817L21.5538 30.5985L21.5027 30.4453C23.0863 31.6457 24.9764 32.412 26.9686 32.6163V32.0289C24.772 31.7735 22.7287 30.854 21.0941 29.347L23.1885 27.2526C23.6993 27.7124 24.2612 28.0955 24.8997 28.402C24.9508 28.1977 25.0019 28.0189 25.1041 27.8401C24.5677 27.5591 24.0569 27.2271 23.6227 26.844L25.7171 24.7496C26.0491 25.005 26.4322 25.2349 26.8153 25.3626V24.724C26.5599 24.6219 26.3301 24.4686 26.1257 24.3154L26.7132 23.7279C26.5089 23.6768 26.3045 23.6002 26.1002 23.5236L25.6915 23.9323C25.4872 23.7024 25.3084 23.447 25.1807 23.1916C24.8231 23.0383 24.4655 22.8595 24.1335 22.6296C22.9075 21.8889 22.1668 20.5352 22.1924 19.0794C22.1668 18.1088 22.4478 17.1382 23.0352 16.372L20.9408 14.2776C22.4733 12.7962 24.44 11.8512 26.5344 11.5191V10.9317C24.2867 11.2637 22.1668 12.2854 20.5322 13.869L20.1746 13.5114C20.098 13.6391 19.9958 13.8179 19.8936 14.0477L20.1235 14.2776C18.259 16.2443 17.2118 18.8495 17.1607 21.5569H14.1724C14.2235 18.0577 15.5771 14.7118 18.0036 12.1577L18.9486 13.1027H19.0763C19.2551 13.0772 19.4594 13.0261 19.6127 12.9495L18.4122 11.749C19.0508 11.136 19.7404 10.5741 20.4811 10.0888C20.5322 9.93558 20.5577 9.78234 20.6343 9.65463C20.762 9.4503 20.9153 9.24597 21.0941 9.04164C19.9703 9.65463 18.9486 10.4209 18.0291 11.3148L15.9347 9.22043C18.7443 6.4875 22.3967 4.77623 26.3301 4.36757C26.3301 4.29094 26.3045 4.23986 26.3045 4.23986C26.279 4.08661 26.2534 3.9589 26.2279 3.78012C16.2923 4.80177 9.11518 13.6646 10.1624 23.5747C11.1329 32.744 18.8464 39.7168 28.0669 39.6913ZM36.9297 8.50527L36.7509 8.22431L36.3678 8.01998L36.0613 8.24985L36.4444 8.45418L36.8786 8.76068L36.9297 8.50527ZM35.1418 16.8828L35.1674 17.1127L35.6782 16.9595L35.8314 16.653L35.4739 16.1932L35.6527 15.9123L36.1379 16.2443L36.2146 16.1677L36.1124 16.0911L36.0102 15.8867L36.2146 15.7846L36.0102 15.5291L35.5505 15.759L35.3972 16.04L35.2951 16.2954L35.4994 16.6274L35.4228 16.7807L35.1418 16.8828ZM13.7382 30.1643L13.7637 30.0366L13.5083 29.4492L13.2018 29.3215L13.7382 30.1643ZM25.8192 19.0283C25.8192 19.5391 26.1257 19.8712 26.6621 20.1777V19.9478L26.3301 19.5902L26.5089 19.2582L26.6621 19.2071C26.6366 18.6196 26.6366 17.9811 26.6366 17.8789H26.611C26.1002 18.1854 25.8448 18.543 25.8192 19.0283Z" fill="#69727D"/>
<path d="M29.1396 31.8756C30.0591 32.3354 30.9275 32.9995 31.2851 34.2254C31.4384 32.1821 30.289 31.3137 29.1652 30.7007L29.1396 31.8756ZM35.3207 11.1616C35.3207 9.29706 33.967 7.25375 30.6721 6.5386C30.3401 6.48751 30.008 6.43643 29.676 6.41089C29.676 6.69184 29.6505 7.33038 29.6505 7.33038C29.6505 7.53471 29.6249 8.27541 29.6249 8.42866C29.8293 8.4542 30.0591 8.47974 30.2635 8.50528C32.1791 8.96502 32.8687 10.0633 32.8687 11.136C32.8687 12.8984 31.3617 13.5625 29.5228 14.0733L28.9098 14.2265C28.3479 14.3543 27.7604 14.5075 27.1985 14.6608C26.9942 14.7118 26.7898 14.7629 26.5855 14.8395C24.5422 15.4525 22.7798 16.4486 22.7798 18.9772C22.7798 21.5058 24.7976 22.4253 26.7643 23.0383C26.7643 22.3232 26.7388 21.5825 26.7132 20.8673C25.8193 20.4586 25.2318 19.9223 25.2318 19.0283C25.2318 18.1344 25.7937 17.6235 26.6366 17.2404C26.8154 17.1638 27.0197 17.0872 27.2496 17.0106C27.7349 16.8318 28.2968 16.7041 28.8587 16.5508L29.4717 16.3976C32.2301 15.7335 35.3462 14.8651 35.3207 11.1616ZM25.3851 28.8617C25.3851 29.8834 26.1258 30.4198 26.8665 30.854C26.8665 30.6752 26.8409 29.1172 26.8409 29.0916C26.8665 28.7851 27.1474 28.5808 27.4028 28.4786C27.7859 28.2998 28.1946 28.1466 28.6033 28.0189C28.8331 27.9423 29.0119 27.8656 29.2163 27.8146C30.7232 27.3548 32.46 26.7929 32.46 24.9539C32.46 23.1149 30.9786 22.3742 29.344 21.8123C29.3184 22.3998 29.3184 23.2426 29.2929 23.8301C29.9825 24.0855 30.4423 24.4176 30.4423 24.9539C30.4423 25.618 29.7526 25.9756 29.2418 26.1799C29.0375 26.2565 28.731 26.3587 28.6288 26.3842C28.2202 26.5119 27.8115 26.6397 27.4028 26.7929C27.1985 26.8695 26.9942 26.9461 26.7898 27.0483C26.1258 27.4059 25.3851 27.9423 25.3851 28.8617ZM26.4067 6.69184C25.7937 6.89617 25.1807 7.12605 24.5933 7.43254C23.9547 7.63687 23.0353 7.68796 22.0902 8.70961C21.7837 9.06719 21.5028 9.45031 21.2218 9.83343C20.9409 10.2421 20.9153 10.9062 20.711 11.2382C20.4045 11.749 20.4811 12.0555 20.4811 12.0555C20.43 12.2854 20.3023 12.5153 20.1491 12.6941C19.8426 13.0516 19.3828 13.2304 18.9231 13.1538C19.3573 13.3581 19.9448 13.0772 19.9448 13.0772C19.8426 13.3581 19.766 13.6391 19.7149 13.9201C20.2002 12.8218 20.6344 12.4387 20.7876 12.3109C20.9919 12.362 21.4261 12.3365 22.2179 11.8767C23.1119 11.3659 24.4656 10.523 24.8487 9.98668C25.2574 9.45031 25.7937 9.01611 26.4323 8.78624C26.4323 8.01999 26.4067 7.30484 26.4067 6.69184ZM22.6266 10.0888L22.1668 10.191L22.7288 9.27152L23.3673 9.29706L22.6266 10.0888Z" fill="#69727D"/>
<path d="M28.2712 28.734C28.1946 28.7596 27.9647 28.8617 27.8114 28.9128C27.6582 28.9639 27.4794 29.0405 27.4794 29.0916C27.4794 29.0916 27.6326 36.9584 27.6326 37.1116C27.6326 38.7207 28.45 38.7463 28.45 37.1116C28.45 37.0094 28.6288 28.6063 28.6288 28.6063C28.6288 28.6063 28.3989 28.683 28.2712 28.734ZM27.4028 26.1288C27.6582 26.0522 27.9136 25.95 28.1435 25.8989C28.3223 25.8479 28.4755 25.7968 28.6543 25.7457C28.6543 25.2604 28.8075 18.4153 28.8331 17.1893C28.2967 17.317 27.7603 17.4703 27.2495 17.6491C27.2751 18.5686 27.4028 25.3881 27.4028 26.1288ZM28.0924 0C25.7937 0 26.7642 3.42254 26.943 4.54636C26.943 4.59745 27.1218 12.2854 27.1729 14.0478C27.5305 13.9456 27.8625 13.869 28.2201 13.7923L28.9097 13.6135C28.9353 11.9023 29.114 4.57191 29.114 4.52082C29.2673 3.34592 30.4677 0 28.0924 0" fill="#69727D"/>
</g>
<defs>
<clipPath id="clip0_1_530">
<rect width="152.318" height="46" fill="white" transform="translate(0.462036)"/>
</clipPath>
</defs>
</svg>
