<svg width="180" height="42" viewBox="0 0 180 42" fill="none" xmlns="http://www.w3.org/2000/svg">
<path fill-rule="evenodd" clip-rule="evenodd" d="M38.4155 13.0624C38.4155 5.45623 32.9592 0 26.1799 0C23.8652 0 21.5495 0.496285 19.5663 2.14992C17.7479 0.662032 15.4323 0 13.1175 0C6.00769 0 0.219971 6.11825 0.219971 13.8901C0.219971 27.6136 13.4481 38.8585 19.5663 42V33.5661C27.1715 30.9209 38.4155 21.9916 38.4155 13.0624ZM19.5654 25.7942V33.4003C14.6045 29.2672 7.82515 21.4953 7.82515 14.2197C7.82515 10.4162 10.4704 7.27465 13.9434 7.27465C16.5896 7.27465 18.7386 8.92828 19.5654 11.2439C20.3922 8.92828 22.7069 7.27465 25.1873 7.27465C28.4946 7.27465 30.9751 10.0856 30.9751 13.3929C30.9741 19.0149 23.0374 24.1415 19.5654 25.7942ZM175.493 25.9609V24.8026H176.153C176.649 24.8026 176.98 24.8026 176.98 25.2989C176.98 25.7952 176.648 25.9609 176.153 25.9609H175.493ZM175.493 26.4562H175.989L176.981 28.1089H177.807L176.649 26.4562C177.311 26.2895 177.643 26.1247 177.643 25.2979C177.643 24.6378 177.146 24.3063 176.32 24.3063H174.832V28.1089H175.492V26.4562H175.493ZM179.462 26.1257C179.462 23.9758 177.972 22.6527 176.154 22.6527C174.335 22.6527 172.683 23.9758 172.683 26.1257C172.683 28.1089 174.171 29.5987 176.154 29.5987C177.972 29.5987 179.462 28.1089 179.462 26.1257ZM178.799 26.1257C178.799 27.7803 177.643 28.9367 176.153 28.9367C174.5 28.9367 173.509 27.6136 173.509 26.1257C173.509 24.4711 174.665 23.3147 176.153 23.3147C177.643 23.3147 178.799 24.4711 178.799 26.1257ZM84.7143 18.3538C84.7143 19.3464 84.5486 19.3464 84.3838 19.3464C83.3912 19.3464 83.7227 16.3706 80.9108 16.3706C79.9192 16.3706 78.7618 16.8669 78.7618 18.0242C78.7618 20.8352 85.5412 20.3399 85.5412 25.4665C85.3764 29.4339 81.7386 30.0959 79.9192 30.0959C78.2655 30.0959 76.1156 29.5997 76.1156 28.4414C76.1156 26.7868 76.1156 25.6304 76.6119 25.6304C77.273 25.6304 77.1082 28.9367 80.2497 28.9367C81.7386 28.9367 82.8959 28.2766 82.8959 26.9535C82.8959 23.3157 76.2823 23.8119 76.2823 19.8436C76.2823 16.3706 79.0933 15.379 81.5728 15.379C83.0607 15.379 84.7143 16.2058 84.7143 16.3715V18.3538ZM51.9741 18.0223C51.9741 18.6843 52.1399 18.8491 53.1315 18.8491C55.9424 18.8491 56.4387 18.3528 56.7693 17.6918C57.0998 16.7002 57.0998 16.0381 57.5961 16.0381C57.9266 16.0381 58.0924 16.2039 58.0924 19.8417C58.0924 22.3221 57.9276 22.9832 57.5961 22.8184C57.2655 22.8184 57.0998 22.3221 56.935 21.6601C56.7702 20.999 56.4387 19.8417 53.7935 19.8417C52.1399 19.8417 51.9751 20.0065 51.9751 20.999V26.2895C52.1408 28.1079 52.4713 28.2747 54.125 28.6061C54.9518 28.7709 55.2823 28.9357 55.2823 29.2663C55.2823 29.5968 54.7861 29.7625 54.125 29.7625H46.6846C46.3531 29.7625 46.1883 29.5977 46.1883 29.1024C46.1883 28.7709 46.5188 28.6061 47.8419 28.6061C48.3382 28.6061 48.6688 28.4394 48.6688 27.283V12.7318C48.6688 11.5745 48.504 11.4087 47.6762 11.2439C46.5188 11.2439 46.5188 11.0782 46.5188 10.7477C46.5188 10.2514 46.8494 10.0866 47.6762 10.0866H58.4239C59.4164 10.0866 59.747 10.0866 59.747 11.5745C59.747 14.8817 59.747 14.8817 59.2507 14.8817C58.9201 14.8817 58.9201 13.7244 58.4239 13.0624C57.7628 11.4087 54.9508 11.2439 53.9592 11.2439C52.3056 11.4087 51.9751 11.4087 51.9751 13.3929V18.0223H51.9741ZM90.3363 25.4646C90.3363 27.4478 90.8326 27.7793 92.1557 27.7793C92.8158 27.7793 93.6436 27.4478 93.8084 27.4478C93.9751 27.4478 94.1399 27.6126 94.1399 27.9441C94.1399 28.7709 92.4853 30.094 90.5021 30.094C88.6836 30.094 87.3605 29.1024 87.3605 26.4562V18.0223C87.3605 17.6918 87.3605 17.526 87.03 17.526C86.0384 17.526 85.7079 17.526 85.7079 17.0297C85.7079 16.5335 87.03 16.2039 88.0235 15.2113C89.1809 14.054 89.6772 12.7309 90.1725 12.7309C90.8345 12.7309 90.0077 15.5419 90.9993 15.5419H93.4807C94.1408 15.5419 94.3056 15.7076 94.3056 16.3687C94.3056 17.1955 93.8093 17.1955 93.6455 17.1955H91.1641C90.1706 17.1955 90.3363 17.6918 90.3363 18.6843V25.4646ZM73.4704 15.5428C71.3205 15.5428 70.8252 17.0307 70.3289 17.0307C69.6678 17.0307 70.4946 15.0465 69.6678 15.0465C69.3373 15.0465 69.1715 15.7076 67.8484 16.5344C66.8568 17.1955 66.03 17.527 66.03 18.0223C65.8643 19.0149 67.1874 18.0223 67.1874 20.338C67.1874 20.338 67.5179 27.9441 67.0226 28.1089C66.5263 28.2756 66.1957 28.9357 65.368 28.9357C64.5421 28.9357 64.0458 28.4394 64.0458 28.4394C63.7153 27.9432 63.881 27.6126 63.881 26.7848V17.8566V15.2113C63.881 15.0456 63.7153 15.0456 63.5505 15.0456C63.3848 15.0456 62.8885 15.8724 61.8969 16.5335C60.0784 17.3603 59.2516 17.0298 59.2516 17.6908C59.2516 19.0139 60.9053 17.8566 60.9053 19.8407V27.2821C60.9053 27.9422 60.7405 28.2737 60.409 28.6052C60.409 28.6052 60.0784 28.77 59.7479 28.77C59.0868 28.9348 58.7553 29.1015 58.7553 29.4301C58.7553 29.5968 58.9211 29.7616 59.2516 29.7616H72.6445C73.1408 29.7616 73.3056 29.7616 73.3056 29.2653C73.4704 28.6052 71.9835 28.6052 71.9835 28.6052C70.4946 28.6052 70.1641 27.7784 70.1641 26.6201V20.5028C70.1641 19.0149 70.4946 18.1881 71.1566 18.1881C71.9835 18.1881 72.4797 19.6759 73.8019 19.6759C75.2898 19.6759 75.6203 18.3528 75.6203 17.8575C75.6194 16.5344 74.6277 15.5428 73.4704 15.5428ZM151.517 25.4646C151.517 27.4478 152.177 27.7793 153.335 27.7793C154.162 27.7793 154.823 27.4478 154.99 27.4478C155.155 27.4478 155.32 27.6126 155.32 27.9441C155.32 28.7709 153.832 30.094 151.682 30.094C149.863 30.094 148.54 29.1024 148.54 26.4562L148.707 18.0223C148.707 17.6918 148.54 17.526 148.375 17.526C147.384 17.526 146.888 17.526 146.888 17.0297C146.888 16.5335 148.375 16.2039 149.367 15.2113C150.359 14.054 150.857 12.7309 151.352 12.7309C152.177 12.7309 151.185 15.5419 152.344 15.5419H154.823C155.485 15.5419 155.65 15.7076 155.65 16.3687C155.485 17.1955 155.154 17.1955 154.99 17.1955H152.509C151.517 17.1955 151.517 17.6918 151.517 18.6843V25.4646ZM160.942 17.527L161.107 17.6918C161.274 17.6918 162.926 15.7076 165.24 15.7076C167.722 15.7076 169.705 16.865 169.705 20.6685V27.4478C169.705 28.1079 170.036 28.2747 170.532 28.6061C171.359 28.9357 171.359 28.9357 171.359 29.2663C171.359 29.5968 171.027 29.7625 170.367 29.7625C170.036 29.7625 166.398 29.5977 165.736 29.5977C165.239 29.5977 164.744 29.5978 164.744 29.2663C164.744 28.77 165.571 28.77 166.067 28.4394C166.563 28.2746 166.729 27.4478 166.729 25.9599V20.6685C166.729 20.338 167.059 17.8575 163.752 17.8575C162.926 17.8575 160.941 18.5186 160.941 20.338V27.7793C160.941 28.2756 161.106 28.4394 161.438 28.4394C161.934 28.7709 162.265 28.7709 162.596 28.9357C162.926 28.9357 163.256 29.1024 163.256 29.2672C163.256 29.5987 162.76 29.7635 162.265 29.7635C161.603 29.7635 157.468 29.5987 156.477 29.7635C156.145 29.7635 155.981 29.432 155.981 29.1034C156.145 28.7719 156.807 28.7719 157.137 28.6071C157.964 28.1089 157.964 27.7803 157.964 26.1257V12.4013C157.799 11.4087 156.476 11.7402 156.476 11.0782C156.476 10.5819 159.949 9.09403 160.445 9.09403C160.941 9.25978 160.941 9.92084 160.941 10.5829V17.527H160.942ZM145.896 28.4404C144.902 28.1089 144.738 27.9441 144.738 27.284V9.92085C144.738 9.42457 144.738 9.09403 144.406 9.09403C144.241 9.09403 143.083 9.92085 142.588 10.0866C141.596 10.5829 140.273 10.7477 140.273 11.4097C140.273 11.906 140.935 12.0708 141.265 12.4023C141.761 12.7328 141.761 13.0633 141.761 15.378V25.4656C141.761 26.9535 141.596 27.4488 141.265 27.7803C141.1 28.1099 140.935 28.1099 140.604 28.2766C140.108 28.4414 139.778 28.4414 139.281 28.2766C138.785 28.1099 138.123 27.4498 138.123 25.7952V24.9683V18.3548C138.123 16.5363 137.298 15.379 134.485 15.379C130.847 15.2142 128.201 18.6863 128.201 19.6779C128.201 20.1741 128.368 20.5047 129.028 20.6704C130.02 20.6704 131.013 19.8436 131.178 18.6863C131.509 17.0317 132.501 16.7021 133.493 16.5363C134.981 16.5363 135.476 17.6937 135.476 19.3473C135.476 20.1741 135.476 20.5047 134.816 20.8352C132.833 22.1583 128.697 23.1499 128.532 27.1192C128.367 29.7654 130.02 30.2607 130.847 30.0959C133.161 30.0959 135.146 28.2775 135.146 28.2775C135.476 28.4423 136.469 29.7654 137.957 29.7654H142.918C144.077 29.7654 146.721 29.9302 147.216 29.6006C147.548 29.4339 147.051 28.7738 147.216 28.9386C147.052 28.7709 147.052 28.7709 145.896 28.4404ZM132.501 28.1089C131.674 27.9441 131.178 27.284 131.178 26.2905C131.178 23.6462 134.484 22.1574 134.816 22.1574C135.312 21.9926 135.312 22.4889 135.312 23.812C135.477 26.9525 134.816 28.4404 132.501 28.1089ZM122.415 16.3696C124.234 16.3696 124.563 17.8575 124.563 18.3538C124.563 20.1722 124.067 20.6695 120.101 20.5037C119.439 20.5037 119.107 20.5037 119.107 20.0074C119.107 18.6843 120.43 16.3696 122.415 16.3696ZM126.88 21.8268C127.376 21.8268 127.376 21.4953 127.376 21.1648C127.376 19.0149 126.053 15.3771 122.085 15.3771C119.108 15.2123 115.801 18.5186 115.801 22.9832C115.801 26.9525 118.447 30.094 121.753 30.094C125.391 30.094 127.045 27.283 127.045 26.7858C127.045 26.4562 127.045 26.2895 126.713 26.2895C126.053 26.4562 124.895 27.9441 122.911 27.7793C121.092 27.7793 118.941 25.9609 118.941 22.9832C118.941 21.4953 119.768 21.8268 120.1 21.8268H126.88Z" fill="#69727D"/>
<path fill-rule="evenodd" clip-rule="evenodd" d="M109.352 29.7625C109.021 29.7625 108.69 29.5977 108.69 29.2663C108.69 28.9348 109.186 28.77 110.18 28.6061C110.676 28.4394 111.005 27.9441 111.005 26.7858V21.8268C111.005 21.1648 111.005 20.338 110.18 20.338H104.722C104.226 20.338 103.73 20.338 103.73 21.3296V26.7858C103.73 27.9441 104.226 28.4404 104.557 28.6061C105.715 28.7709 106.045 28.9357 106.045 29.2663C106.045 29.5968 105.88 29.7625 105.549 29.7625H98.7693C98.4397 29.7625 98.273 29.5977 98.273 29.2663C98.273 29.1015 98.6045 28.9348 99.7609 28.6061C100.259 28.4394 100.754 28.2746 100.754 27.283V12.7318C100.754 11.905 100.588 11.2439 99.7609 11.2439C98.936 11.2439 98.4397 11.0782 98.4397 10.5829C98.4397 10.2514 98.936 10.0866 99.2646 10.0866H105.052C105.384 10.0866 105.879 10.0866 105.879 10.7477C105.879 11.0782 105.548 11.2439 104.721 11.2439C103.896 11.4087 103.729 11.7402 103.729 12.5661V18.0223C103.729 18.5186 103.729 19.0149 104.391 19.0149H110.344C111.004 19.0149 111.004 18.5186 111.004 18.0223V12.0698C111.004 11.4087 110.344 11.2439 110.012 11.2439C109.352 11.2439 108.856 11.0782 108.856 10.7477C108.856 10.2514 109.352 10.0866 109.847 10.0866H115.468C116.131 10.0866 116.295 10.2514 116.295 10.5829C116.295 11.4097 115.304 11.2439 114.641 11.4097C114.476 11.5745 114.144 11.7402 114.144 12.8976V26.7868C114.144 27.9451 114.311 28.4414 115.303 28.6071C115.963 28.7719 116.294 28.7719 116.294 29.2672C116.294 29.5987 116.13 29.7635 115.634 29.7635L109.352 29.7625Z" fill="#69727D"/>
</svg>
