<svg width="201" height="28" viewBox="0 0 201 28" fill="none" xmlns="http://www.w3.org/2000/svg">
<path fill-rule="evenodd" clip-rule="evenodd" d="M5.74577 9.18113C5.74577 9.05026 5.81974 8.33787 5.558 8.31853H2.50361C1.34171 8.31853 1.30416 8.59961 0.967308 9.63064C0.911546 9.81727 0.8922 10.0608 0.649806 10.0608C0.536006 10.0608 0.462036 9.9288 0.462036 9.83662L0.668015 8.01923C0.687361 7.79505 0.668015 7.2875 1.006 7.2875C2.46605 7.2875 3.90904 7.3626 6.32615 7.3626C9.71625 7.3626 11.4403 7.2875 11.8159 7.2875C12.246 7.2875 12.3405 7.40016 12.3587 7.83146L12.4531 9.33021C12.4713 9.51684 12.4918 9.74217 12.2472 9.74217C11.5541 9.74217 12.5658 8.31739 10.6551 8.31739H7.97511C7.13299 8.31739 7.22744 8.24228 7.22744 9.23576V18.7904C7.22744 20.3642 8.7444 19.7463 8.7444 20.3267C8.7444 20.3836 8.76374 20.552 8.57597 20.552C8.12532 20.552 7.60184 20.4769 7.05788 20.4769C4.95941 20.4769 4.60435 20.552 4.49169 20.552C4.32327 20.552 4.26751 20.4951 4.26751 20.3085C4.26751 19.8578 5.74691 20.0468 5.74691 18.9213V9.18113H5.74577ZM17.0427 8.59962C17.0427 7.86902 17.4364 7.90657 18.1101 7.90657C19.9457 7.90657 21.688 8.67472 21.688 10.961C21.688 13.2836 19.89 13.6205 19.0843 13.6205C18.2034 13.6205 17.0427 13.7138 17.0427 13.3587V8.59962ZM20.7321 13.7718C22.0442 13.2461 23.0934 11.992 23.0934 10.5285C23.0934 6.9131 18.9523 7.2875 18.653 7.2875C17.68 7.2875 16.6114 7.3626 15.5246 7.3626C14.5687 7.3626 14.6631 7.2875 14.3251 7.2875C14.101 7.2875 13.9507 7.40016 13.9507 7.51282C13.9507 8.1501 15.5622 7.38195 15.5622 9.17999V18.7164C15.5622 20.1401 14.1943 19.8783 14.1943 20.3472C14.1943 20.4587 14.2682 20.5532 14.382 20.5532C15.0944 20.5532 15.8057 20.4781 16.5181 20.4781C18.0726 20.4781 18.5027 20.5532 18.6734 20.5532C18.8237 20.5532 18.9909 20.5896 18.9909 20.4029C18.9909 19.7645 17.0427 20.3472 17.0427 18.7346V14.7824C17.0427 14.5946 16.93 14.2566 17.5298 14.2566C19.6271 14.2566 19.3471 14.1997 20.0208 15.2501L22.1011 18.5287C22.8123 19.5961 23.5429 20.552 24.9108 20.552C25.0792 20.552 26.1285 20.552 26.1285 20.3267C26.1285 19.8772 25.2101 20.5702 23.8604 18.5082L20.7321 13.7718ZM28.508 8.89891C28.4887 7.53104 26.9899 7.90544 26.9899 7.49462C26.9899 7.32506 27.0275 7.2875 27.1766 7.2875C27.8708 7.2875 28.5444 7.3626 29.2386 7.3626C29.819 7.3626 30.4005 7.2875 30.9809 7.2875C31.2813 7.2875 31.3371 7.32505 31.3371 7.47527C31.3371 7.92478 29.9874 7.49462 29.9874 8.89891V18.9588C29.9874 20.2334 31.6546 19.8021 31.6546 20.3643C31.6546 20.4951 31.5988 20.552 31.2802 20.552C30.8489 20.552 30.0432 20.4769 29.2386 20.4769C28.0949 20.4769 27.7023 20.552 27.4394 20.552C27.1015 20.552 27.0457 20.4576 27.0457 20.2698C27.0457 19.7258 28.5069 20.346 28.5069 18.4911V8.89891H28.508ZM35.3417 10.9792C35.3417 7.08266 33.0737 8.16831 33.0737 7.47527C33.0737 7.3626 33.2615 7.2875 33.3559 7.2875C33.6552 7.2875 33.9363 7.3626 34.2356 7.3626C34.5178 7.3626 34.8171 7.2875 35.097 7.2875C35.303 7.2875 35.4726 7.58679 35.5841 7.7188L44.5208 17.6661C44.6324 17.7981 44.7086 17.8732 44.7461 17.8732C44.7826 17.8732 44.8019 17.8163 44.8019 17.6661V9.83662C44.8019 7.38309 42.7228 8.09434 42.7228 7.47527C42.7228 7.3444 42.8172 7.2875 42.9288 7.2875C43.4909 7.2875 44.0338 7.3626 44.6335 7.3626C45.2708 7.3626 46.0776 7.2875 46.526 7.2875C46.6398 7.2875 46.7137 7.3444 46.7137 7.45706C46.7137 7.94412 45.6076 7.60727 45.6076 8.97515V19.8214C45.6076 20.3654 45.5883 20.6271 45.4392 20.6271C45.3083 20.6271 45.1217 20.5327 44.7279 20.1025L36.672 11.0349C36.6345 10.9974 36.4103 10.6787 36.2783 10.6787C36.2043 10.6787 36.1474 10.7356 36.1474 11.11V18.7722C36.1474 20.4576 37.7952 19.8021 37.7952 20.3096C37.7952 20.4029 37.777 20.5532 37.5893 20.5532C37.1386 20.5532 36.6151 20.4781 35.6968 20.4781C35.0413 20.4781 34.0672 20.5532 33.9352 20.5532C33.711 20.5532 33.6928 20.4394 33.6928 20.3472C33.6928 19.6906 35.3406 20.5145 35.3406 17.8914V10.9792H35.3417ZM50.064 8.89891C50.0447 7.53104 48.5459 7.90544 48.5459 7.49462C48.5459 7.32506 48.5835 7.2875 48.7337 7.2875C49.4267 7.2875 50.1016 7.3626 50.7958 7.3626C51.3761 7.3626 51.9576 7.2875 52.538 7.2875C52.8373 7.2875 52.8931 7.32505 52.8931 7.47527C52.8931 7.92478 51.5434 7.49462 51.5434 8.89891V18.9588C51.5434 20.2334 53.2106 19.8021 53.2106 20.3643C53.2106 20.4951 53.1548 20.552 52.8362 20.552C52.4049 20.552 51.6003 20.4769 50.7946 20.4769C49.6509 20.4769 49.2583 20.552 48.9954 20.552C48.6586 20.552 48.6028 20.4576 48.6028 20.2698C48.6028 19.7258 50.0652 20.346 50.0652 18.4911V8.89891H50.064ZM59.6517 9.18113C59.6517 9.05026 59.7256 8.33787 59.4639 8.31853H56.4095C55.2476 8.31853 55.2112 8.59961 54.8732 9.63064C54.8163 9.81727 54.7992 10.0608 54.5546 10.0608C54.4419 10.0608 54.3657 9.9288 54.3657 9.83662L54.5728 8.01923C54.5921 7.79505 54.5728 7.2875 54.9108 7.2875C56.3719 7.2875 57.8138 7.3626 60.2309 7.3626C63.6221 7.3626 65.3451 7.2875 65.7206 7.2875C66.1508 7.2875 66.2441 7.40016 66.2634 7.83146L66.3579 9.33021C66.3772 9.51684 66.3954 9.74217 66.1519 9.74217C65.4589 9.74217 66.4694 8.31739 64.5587 8.31739H61.8799C61.0366 8.31739 61.1299 8.24228 61.1299 9.23576V18.7904C61.1299 20.3642 62.648 19.7463 62.648 20.3267C62.648 20.3836 62.6662 20.552 62.4785 20.552C62.0289 20.552 61.5043 20.4769 60.9615 20.4769C58.8619 20.4769 58.5068 20.552 58.3942 20.552C58.2257 20.552 58.17 20.4951 58.17 20.3085C58.17 19.8578 59.6505 20.0468 59.6505 18.9213V9.18113H59.6517ZM69.3554 8.46874C68.8683 7.66304 67.95 7.88722 67.95 7.56972C67.95 7.43885 68.0638 7.2875 68.1946 7.2875C68.6999 7.2875 69.0561 7.3626 70.3295 7.3626C70.9474 7.3626 71.4539 7.2875 71.6416 7.2875C71.7725 7.2875 71.9967 7.30684 71.9967 7.47527C71.9967 7.79391 71.1159 7.81212 71.1159 8.35608C71.1159 8.65537 71.3412 8.95467 71.4539 9.12423L73.7219 12.7397C73.871 12.9638 73.9836 13.0765 74.0963 13.0765C74.1907 13.0765 74.3023 12.9456 74.4525 12.7021L76.3825 9.5726C76.5134 9.36662 76.7751 9.04912 76.7751 8.54271C76.7751 7.62435 75.3708 8.01809 75.3708 7.56858C75.3708 7.32505 75.5586 7.28636 75.7646 7.28636C76.213 7.28636 76.683 7.36147 77.1313 7.36147C77.6753 7.36147 78.2181 7.28636 78.7609 7.28636C78.8736 7.28636 78.9669 7.41837 78.9669 7.51169C78.9669 7.71767 78.6483 7.79277 78.5174 7.86788C78.0133 8.16717 77.7686 8.69179 77.4693 9.16065L74.8474 13.2438C74.5469 13.7126 74.3967 13.806 74.3967 14.0882V18.6777C74.3967 20.3085 75.933 19.7839 75.933 20.3631C75.933 20.5304 75.7657 20.5509 75.5017 20.5509C75.2206 20.5509 74.135 20.4758 73.4408 20.4758C72.5975 20.4758 71.9239 20.5509 71.7554 20.5509C71.587 20.5509 71.4732 20.5304 71.4732 20.3256C71.4732 19.8009 72.9173 20.2891 72.9173 18.9577V14.425C72.9173 14.07 72.6351 13.6944 72.486 13.4703L69.3554 8.46874ZM124.542 8.80446C124.521 7.43658 122.91 7.81098 122.91 7.39903C122.91 7.2306 123.061 7.19191 123.21 7.19191C123.903 7.19191 124.579 7.26701 125.272 7.26701C125.853 7.26701 126.433 7.19191 127.014 7.19191C127.332 7.19191 127.369 7.30457 127.369 7.37967C127.369 7.75408 126.02 7.39902 126.02 8.80331V12.85C126.02 13.1118 126.02 13.1869 126.3 13.1869H133.156C133.343 13.1869 133.305 12.718 133.305 12.6429V8.80217C133.305 7.50941 131.901 7.82691 131.901 7.39674C131.901 7.28408 131.939 7.18963 132.221 7.18963C132.839 7.18963 133.812 7.26474 134.168 7.26474C134.861 7.26474 135.141 7.18963 135.518 7.18963C136.005 7.18963 136.042 7.3774 136.042 7.49006C136.042 7.82691 134.786 7.50941 134.786 8.80217V18.7312C134.786 20.098 136.493 19.76 136.493 20.23C136.493 20.2857 136.418 20.4542 136.286 20.4542C135.779 20.4542 135.199 20.3802 134.523 20.3802C133.325 20.3802 132.8 20.4542 132.445 20.4542C132.277 20.4542 131.994 20.5099 131.994 20.2095C131.994 19.7588 133.305 20.0229 133.305 18.8427V14.3454C133.305 14.0461 133.38 13.8777 133.156 13.8777H126.244C126.02 13.8777 126.02 13.9915 126.02 14.1974V18.8621C126.02 20.1355 127.797 19.7236 127.797 20.3051C127.797 20.3984 127.669 20.4553 127.497 20.4553C127.255 20.4553 125.888 20.3813 124.894 20.3813C123.563 20.3813 123.358 20.4553 123.283 20.4553C123.134 20.4553 123.076 20.3608 123.076 20.1742C123.076 19.6302 124.538 20.2482 124.538 18.3955V8.80446H124.542ZM141.736 12.6452C141.736 13.2825 141.698 13.2825 142.447 13.2825H144.471C146.418 13.2825 145.914 11.7837 146.363 11.7837C146.514 11.7837 146.57 11.9897 146.57 12.1388C146.57 12.7954 146.532 13.4316 146.532 14.0324C146.532 14.5195 146.57 15.0054 146.57 15.5118C146.57 15.6802 146.495 15.7565 146.363 15.7565C145.782 15.7565 146.418 14.1075 144.845 14.1075H142.072C141.679 14.1075 141.734 14.4262 141.734 14.7061V18.1531C141.734 19.2593 141.583 19.7076 143.159 19.7076C147.487 19.7076 148.124 17.7787 148.367 17.7787C148.498 17.7787 148.516 17.9654 148.516 18.0029C148.516 18.6777 148.029 19.3332 147.58 19.8214C146.981 20.4951 146.569 20.4587 145.745 20.4587C144.32 20.4587 142.897 20.346 141.473 20.3847C140.724 20.4029 139.936 20.4587 139.188 20.4587C139.019 20.4587 138.905 20.42 138.905 20.2709C138.943 20.0468 139.13 20.0843 139.73 19.7839C140.217 19.5597 140.255 19.0351 140.255 18.1531V9.60901C140.255 8.76689 140.255 7.86674 139.243 7.71653C139.092 7.68011 138.681 7.64256 138.681 7.41723C138.681 7.26702 138.795 7.19191 139.337 7.19191C142.877 7.19191 143.853 7.26701 144.637 7.26701C145.013 7.26701 146.738 7.19191 147.317 7.19191C147.467 7.19191 147.506 7.37968 147.506 7.60387C147.506 9.68299 147.242 9.83321 147.131 9.83321C146.68 9.83321 146.979 8.93419 146.68 8.50402C146.193 7.86561 144.244 7.9794 143.497 7.9794C141.697 7.9794 141.734 7.9043 141.734 9.15837V12.6452H141.736ZM155.73 9.55326C155.841 9.32907 155.934 9.32907 156.03 9.55326L157.866 14.07C157.959 14.3135 157.977 14.4432 157.565 14.4432H153.855C153.611 14.4432 153.48 14.3693 153.611 14.1064L155.73 9.55326ZM159.271 17.5158C159.458 18.0211 159.851 18.8826 159.851 19.2945C159.851 20.0069 158.729 19.8203 158.729 20.2687C158.729 20.4564 159.03 20.4564 159.14 20.4564C159.647 20.4564 160.152 20.3825 160.658 20.3825C161.425 20.3825 162.195 20.4564 162.963 20.4564C163.091 20.4564 163.223 20.4564 163.223 20.288C163.223 19.8203 162.136 20.2322 161.577 19.3696C161.145 18.7142 160.921 17.9267 160.639 17.2336L156.742 7.58565C156.687 7.43657 156.556 6.89148 156.349 6.89148C156.104 6.89148 156.048 7.19191 154.944 9.55212L150.465 19.1068C149.978 20.1742 149.098 19.8556 149.098 20.2493C149.098 20.362 149.154 20.4564 149.267 20.4564C149.754 20.4564 150.258 20.3825 150.764 20.3825C151.289 20.3825 151.814 20.4564 152.338 20.4564C152.583 20.4564 152.845 20.5122 152.845 20.1753C152.845 19.6883 151.513 20.2493 151.513 18.9383C151.513 18.6948 151.588 18.4137 151.644 18.2828L152.845 15.6598C153.031 15.266 153.369 15.266 153.724 15.266H157.845C158.37 15.266 158.483 15.5471 158.67 15.9784L159.271 17.5158ZM166.874 18.152C166.874 19.2581 166.723 19.7065 168.296 19.7065C172.624 19.7065 173.262 17.7776 173.504 17.7776C173.637 17.7776 173.655 17.9642 173.655 18.0018C173.655 18.6766 173.168 19.3321 172.72 19.8203C172.12 20.494 171.706 20.4576 170.884 20.4576C169.46 20.4576 168.035 20.3449 166.612 20.3836C165.861 20.4018 165.076 20.4576 164.325 20.4576C164.159 20.4576 164.045 20.4189 164.045 20.2698C164.082 20.0456 164.269 20.0832 164.87 19.7827C165.357 19.5585 165.395 19.0339 165.395 18.152V8.65424C165.395 7.68011 163.821 7.81098 163.821 7.43658C163.821 7.22946 163.952 7.19191 164.194 7.19191C164.588 7.19191 165.169 7.26701 166.088 7.26701C167.155 7.26701 167.606 7.19191 167.886 7.19191C168.13 7.19191 168.241 7.22946 168.241 7.45365C168.241 7.88495 166.874 7.41723 166.874 9.04571V18.152ZM178.433 9.08554C178.433 8.95467 178.505 8.24342 178.244 8.22407H175.192C174.03 8.22407 173.991 8.5063 173.653 9.53505C173.597 9.72282 173.578 9.96521 173.336 9.96521C173.222 9.96521 173.147 9.83434 173.147 9.74103L173.354 7.92364C173.374 7.69946 173.354 7.19305 173.692 7.19305C175.154 7.19305 176.597 7.26815 179.013 7.26815C182.404 7.26815 184.127 7.19305 184.503 7.19305C184.932 7.19305 185.027 7.30571 185.046 7.73701L185.139 9.23462C185.159 9.42239 185.176 9.64657 184.932 9.64657C184.241 9.64657 185.252 8.22294 183.341 8.22294H180.662C179.818 8.22294 179.911 8.14897 179.911 9.1413V18.6959C179.911 20.2698 181.429 19.6519 181.429 20.2334C181.429 20.2891 181.449 20.4576 181.261 20.4576C180.811 20.4576 180.288 20.3836 179.745 20.3836C177.644 20.3836 177.291 20.4576 177.177 20.4576C177.009 20.4576 176.953 20.4007 176.953 20.2129C176.953 19.7622 178.434 19.9512 178.434 18.8268V9.08554H178.433ZM188.512 8.80446C188.491 7.43658 186.88 7.81098 186.88 7.39903C186.88 7.2306 187.029 7.19191 187.18 7.19191C187.873 7.19191 188.547 7.26701 189.241 7.26701C189.822 7.26701 190.403 7.19191 190.984 7.19191C191.301 7.19191 191.339 7.30457 191.339 7.37967C191.339 7.75408 189.989 7.39902 189.989 8.80331V12.85C189.989 13.1118 189.989 13.1869 190.271 13.1869H197.125C197.314 13.1869 197.277 12.718 197.277 12.6429V8.80217C197.277 7.50941 195.872 7.82691 195.872 7.39674C195.872 7.28408 195.908 7.18963 196.19 7.18963C196.808 7.18963 197.783 7.26474 198.139 7.26474C198.832 7.26474 199.112 7.18963 199.489 7.18963C199.976 7.18963 200.014 7.3774 200.014 7.49006C200.014 7.82691 198.757 7.50941 198.757 8.80217V18.7312C198.757 20.098 200.462 19.76 200.462 20.23C200.462 20.2857 200.387 20.4542 200.255 20.4542C199.751 20.4542 199.168 20.3802 198.494 20.3802C197.296 20.3802 196.769 20.4542 196.414 20.4542C196.246 20.4542 195.965 20.5099 195.965 20.2095C195.965 19.7588 197.276 20.0229 197.276 18.8427V14.3454C197.276 14.0461 197.351 13.8777 197.124 13.8777H190.212C189.988 13.8777 189.988 13.9915 189.988 14.1974V18.8621C189.988 20.1355 191.768 19.7236 191.768 20.3051C191.768 20.3984 191.637 20.4553 191.467 20.4553C191.225 20.4553 189.856 20.3813 188.865 20.3813C187.533 20.3813 187.326 20.4553 187.253 20.4553C187.102 20.4553 187.046 20.3608 187.046 20.1742C187.046 19.6302 188.508 20.2482 188.508 18.3955V8.80446H188.512Z" fill="#69727D"/>
<path fill-rule="evenodd" clip-rule="evenodd" d="M114.684 7.76892C101.768 12.4666 100.637 26.901 100.634 26.8543C100.631 26.926 99.501 12.5178 86.6166 7.80989C85.4797 9.66142 84.8345 11.7667 84.8345 13.9983C84.8345 21.4158 91.9208 27.429 100.664 27.429C109.406 27.429 116.494 21.4158 116.494 13.9983C116.494 11.7496 115.838 9.63183 114.684 7.76892ZM93.4025 18.9873C92.0926 20.5498 90.1523 21.0812 89.069 20.1731C87.9867 19.2639 88.1711 17.261 89.4832 15.6985C90.7953 14.136 92.7356 13.6046 93.8178 14.5127C94.9001 15.4208 94.7146 17.4248 93.4025 18.9873ZM112.222 20.2425C111.139 21.1518 109.199 20.6203 107.887 19.0579C106.575 17.4954 106.389 15.4914 107.472 14.5833C108.554 13.6751 110.494 14.2054 111.806 15.7691C113.117 17.3315 113.304 19.3344 112.222 20.2425Z" fill="#69727D"/>
<path fill-rule="evenodd" clip-rule="evenodd" d="M100.664 0.571045C95.0184 0.571045 90.0647 3.08147 87.264 6.85394C88.8151 6.82435 100.061 7.07698 100.633 20.7307C101.197 6.93473 112.645 6.79362 114.046 6.82662C111.237 3.06781 106.296 0.571045 100.664 0.571045ZM100.632 10.6025C99.2187 10.6025 98.0739 8.94786 98.0739 6.90856C98.0739 4.86813 99.2187 3.21462 100.632 3.21462C102.047 3.21462 103.191 4.86813 103.191 6.90856C103.19 8.94786 102.047 10.6025 100.632 10.6025Z" fill="#69727D"/>
</svg>
