<svg width="201" height="38" viewBox="0 0 201 38" fill="none" xmlns="http://www.w3.org/2000/svg">
<g clip-path="url(#clip0_1_508)">
<path fill-rule="evenodd" clip-rule="evenodd" d="M55.2908 32.7897V4.29797H58.3352V15.6609C59.4424 13.3745 61.7062 11.8614 64.7087 11.8614C69.2743 11.8614 72.1521 14.9257 72.1521 19.6266V32.7897H69.1082V20.2825C69.1082 16.8443 67.1352 14.6768 63.9681 14.6768C60.6768 14.6768 58.3352 17.0511 58.3352 20.4862V32.7897H55.2908Z" fill="#69727D"/>
<path fill-rule="evenodd" clip-rule="evenodd" d="M83.6223 30.5826C87.6916 30.5826 89.9554 28.7428 89.9554 25.8406V22.1595C89.3799 22.7737 87.5694 23.1823 84.5654 23.4252C80.7824 23.7564 78.8502 24.6532 78.8502 27.1464C78.8502 29.3149 80.6602 30.5826 83.6223 30.5826ZM84.4427 20.5661C86.5824 20.3995 88.0198 20.1591 88.8038 19.7877C89.5819 19.4209 89.9554 18.6871 89.9554 17.5404C89.9554 15.8647 88.5145 14.3943 85.512 14.3943C83.2497 14.3943 81.3998 15.3759 79.919 17.2985L77.8223 15.5792C79.6726 12.9224 82.2208 11.5714 85.512 11.5714C89.9953 11.5714 92.9978 14.0651 92.9978 17.9931V28.9867C92.9978 30.5404 93.8203 30.5826 94.7235 30.5826H95.0941V32.7486C94.6407 33.0341 93.945 33.1987 92.9978 33.1987C91.9679 33.1987 91.2702 32.8299 90.8183 32.0937C90.6118 31.7293 90.4492 31.2746 90.3669 30.7853C88.8841 32.5468 86.542 33.402 83.2931 33.402C78.8502 33.402 75.8048 30.9529 75.8048 27.2292C75.8048 23.0196 78.6826 21.0153 84.4427 20.5661Z" fill="#69727D"/>
<path fill-rule="evenodd" clip-rule="evenodd" d="M98.88 4.29797H101.922V27.3952C101.922 29.6832 102.578 30.5825 104.512 30.5825C105.088 30.5825 105.58 30.5404 105.991 30.4174V33.2413C105.54 33.3628 105.048 33.4024 104.512 33.4024C103.154 33.4024 102.166 33.1987 100.892 32.5051C99.6182 31.8085 98.88 30.0932 98.88 27.6005V4.29797Z" fill="#69727D"/>
<path fill-rule="evenodd" clip-rule="evenodd" d="M109.819 22.4894C109.819 24.817 110.557 26.7421 112.08 28.2914C113.601 29.8035 115.494 30.5823 117.796 30.5823C120.099 30.5823 121.992 29.8035 123.513 28.2914C125.036 26.7406 125.775 24.817 125.775 22.4894C125.775 20.1588 125.036 18.2367 123.513 16.7227C121.992 15.1724 120.099 14.3941 117.796 14.3941C115.494 14.3941 113.601 15.1724 112.08 16.7227C110.557 18.2367 109.819 20.1588 109.819 22.4894ZM106.773 22.4894C106.773 19.381 107.844 16.8089 109.982 14.7218C112.12 12.6361 114.711 11.5712 117.796 11.5712C120.88 11.5712 123.471 12.6361 125.613 14.7218C127.75 16.8089 128.819 19.381 128.819 22.4894C128.819 25.5959 127.75 28.2116 125.613 30.2968C123.471 32.381 120.88 33.4022 117.796 33.4022C114.711 33.4022 112.12 32.381 109.982 30.2968C107.844 28.2116 106.773 25.5959 106.773 22.4894Z" fill="#69727D"/>
<path fill-rule="evenodd" clip-rule="evenodd" d="M147.935 28.2916C149.418 26.7408 150.158 24.8172 150.158 22.4896C150.158 20.159 149.418 18.2369 147.935 16.7229C146.495 15.1726 144.642 14.3943 142.426 14.3943C140.287 14.3943 138.517 15.1726 137.078 16.7229C135.682 18.2369 134.981 20.159 134.981 22.4896C134.981 24.8172 135.682 26.7408 137.078 28.2916C138.517 29.8037 140.287 30.5825 142.426 30.5825C144.642 30.5825 146.495 29.8037 147.935 28.2916ZM149.787 15.2519V4.29797H152.829V32.7897H149.787V29.7253C148.593 31.8085 146.167 33.4024 142.426 33.4024C139.507 33.4024 136.995 32.3811 134.981 30.2969C132.966 28.2113 131.939 25.5961 131.939 22.4896C131.939 19.3812 132.966 16.8086 134.981 14.722C136.995 12.6363 139.507 11.5714 142.426 11.5714C146.167 11.5714 148.593 13.1692 149.787 15.2519Z" fill="#69727D"/>
<path fill-rule="evenodd" clip-rule="evenodd" d="M159.523 22.4894C159.523 24.817 160.261 26.7406 161.784 28.2914C163.305 29.8035 165.196 30.5823 167.501 30.5823C169.803 30.5823 171.696 29.8035 173.217 28.2914C174.737 26.7406 175.479 24.817 175.479 22.4894C175.479 20.1588 174.737 18.2367 173.217 16.7227C171.696 15.1724 169.803 14.3941 167.501 14.3941C165.196 14.3941 163.305 15.1724 161.784 16.7227C160.261 18.2367 159.523 20.1588 159.523 22.4894ZM156.477 22.4894C156.477 19.381 157.548 16.8089 159.686 14.7218C161.824 12.6361 164.417 11.5712 167.501 11.5712C170.586 11.5712 173.174 12.6361 175.314 14.7218C177.453 16.8089 178.521 19.381 178.521 22.4894C178.521 25.5959 177.453 28.2116 175.314 30.2968C173.174 32.381 170.586 33.4022 167.501 33.4022C164.417 33.4022 161.824 32.381 159.686 30.2968C157.548 28.2116 156.477 25.5959 156.477 22.4894Z" fill="#69727D"/>
<mask id="mask0_1_508" style="mask-type:alpha" maskUnits="userSpaceOnUse" x="181" y="11" width="20" height="23">
<path d="M200.207 11.571V33.4021H181.332V11.571H200.207Z" fill="white"/>
</mask>
<g mask="url(#mask0_1_508)">
<path fill-rule="evenodd" clip-rule="evenodd" d="M200.207 14.677L198.357 16.8088C196.794 15.212 194.78 14.3944 192.353 14.3944C190.05 14.3944 188.159 15.1723 186.639 16.7226C185.114 18.2366 184.374 20.1592 184.374 22.4893C184.374 24.8169 185.114 26.7405 186.639 28.2913C188.159 29.8033 190.05 30.5827 192.353 30.5827C194.78 30.5827 196.794 29.7622 198.357 28.1698L200.207 30.2966C198.193 32.3808 195.561 33.4021 192.353 33.4021C189.269 33.4021 186.681 32.3808 184.539 30.2966C182.402 28.2114 181.332 25.5958 181.332 22.4893C181.332 19.3808 182.402 16.8088 184.539 14.7216C186.681 12.6364 189.269 11.571 192.353 11.571C195.561 11.571 198.193 12.5958 200.207 14.677Z" fill="#69727D"/>
</g>
<mask id="mask1_1_508" style="mask-type:alpha" maskUnits="userSpaceOnUse" x="0" y="1" width="40" height="36">
<path d="M20.0031 36.9865H0.462036V1.08313H39.5442V36.9865H20.0031Z" fill="white"/>
</mask>
<g mask="url(#mask1_1_508)">
<path fill-rule="evenodd" clip-rule="evenodd" d="M36.5023 23.7694C36.5023 29.9501 31.4544 34.2662 24.2245 34.2662C16.8031 34.2662 11.4195 29.8544 11.4195 23.7694V16.0186C13.4893 15.6795 14.8659 14.9254 16.3637 13.4242C18.24 11.5403 19.3796 8.82551 19.3582 6.16672V1.08313H12.7976V3.79398H16.6265V6.16672C16.6265 10.1775 13.7522 13.4361 9.71778 13.4361C5.68137 13.4361 3.1467 10.1775 3.1467 6.16672V3.79398H7.02301V1.08313H0.461914V6.16672C0.461914 11.2959 3.41952 15.4058 8.37413 16.0592V23.7694C8.37413 31.3035 15.1886 36.983 24.2245 36.9865C33.1028 36.9865 39.5442 31.4275 39.5442 23.7694V16.0186H36.5023V23.7694Z" fill="#69727D"/>
</g>
<path fill-rule="evenodd" clip-rule="evenodd" d="M38.1217 9.7927C36.3572 9.7927 34.9222 8.36589 34.9222 6.61683C34.9222 4.86231 36.3572 3.4345 38.1217 3.4345C39.8823 3.4345 41.3188 4.84545 41.3188 6.57964C41.3188 8.35151 39.8823 9.7927 38.1217 9.7927ZM38.1217 0.714233C34.8664 0.714233 32.2185 3.34774 32.2185 6.58262C32.2185 9.83732 34.8664 12.4822 38.1217 12.4822C41.3741 12.4822 44.025 9.83732 44.025 6.58262C44.025 3.34774 41.3741 0.714233 38.1217 0.714233Z" fill="#69727D"/>
</g>
<defs>
<clipPath id="clip0_1_508">
<rect width="200" height="36.5714" fill="white" transform="translate(0.462036 0.714233)"/>
</clipPath>
</defs>
</svg>
