<svg width="201" height="26" viewBox="0 0 201 26" fill="none" xmlns="http://www.w3.org/2000/svg">
<g clip-path="url(#clip0_1_503)">
<path d="M169.486 17.0849V15.7078C168.805 15.4757 167.768 15.1662 166.051 15.1662C163.498 15.1662 162.09 16.2958 162.09 17.9668V18.0132C162.09 19.7616 163.746 20.7828 165.587 20.7828C167.877 20.7828 169.486 19.3903 169.486 17.0849ZM160.852 18.0906V18.0442C160.852 15.5376 163.003 14.1296 166.113 14.1296C167.784 14.1296 168.666 14.4081 169.455 14.6402V14.1296C169.455 11.7004 167.97 10.4471 165.494 10.4471C164.473 10.4471 163.467 10.7101 162.353 11.2826L161.935 10.2769C163.266 9.65797 164.303 9.37946 165.556 9.37946C167.181 9.37946 168.48 9.82817 169.362 10.6946C170.167 11.4992 170.584 12.5978 170.584 14.0986V21.5874H169.455V19.7616C168.991 20.5507 167.738 21.8659 165.494 21.8659C163.266 21.8814 160.852 20.5972 160.852 18.0906ZM158.237 15.0115C158.067 12.5823 156.675 10.3388 153.92 10.3388C151.538 10.3388 149.696 12.3502 149.48 15.0115H158.237ZM148.257 15.5995V15.5531C148.257 12.0562 150.718 9.27115 153.967 9.27115C157.34 9.27115 159.491 12.0098 159.491 15.5685C159.491 15.7852 159.491 15.847 159.46 16.0482H149.48C149.696 19.0499 151.832 20.7983 154.199 20.7983C156.056 20.7983 157.34 19.9783 158.33 18.9106L159.135 19.6224C157.912 20.953 156.473 21.8814 154.152 21.8814C150.996 21.8659 148.257 19.3439 148.257 15.5995ZM42.2385 5.06258H54.4929V7.66199H45.1474V11.9634H53.4253V14.5628H45.1474V19.0035H54.6167V21.5874H42.2385V5.06258ZM56.5662 9.1319H59.4132V11.0196C60.2178 9.90553 61.3009 8.86886 63.2195 8.86886C65.0143 8.86886 66.2676 9.73533 66.9329 11.066C67.9541 9.7508 69.2693 8.86886 71.157 8.86886C73.8647 8.86886 75.5203 10.5863 75.5203 13.6344V21.5874H72.6578V14.5009C72.6578 12.5204 71.7295 11.4528 70.1358 11.4528C68.573 11.4528 67.4745 12.5359 67.4745 14.5473V21.5874H64.612V14.4854C64.612 12.5514 63.6682 11.4683 62.09 11.4683C60.5118 11.4683 59.4287 12.6442 59.4287 14.5783V21.5874H56.5662V9.1319ZM88.0222 15.3829V15.3364C88.0222 12.9227 86.3976 11.3445 84.4635 11.3445C82.5294 11.3445 80.8274 12.9537 80.8274 15.3364V15.3829C80.8274 17.7966 82.5294 19.3748 84.4635 19.3748C86.4131 19.3748 88.0222 17.843 88.0222 15.3829ZM80.8893 19.6533V21.5874H78.0269V4.36631H80.8893V11.2052C81.8022 9.90553 83.1019 8.86886 85.1133 8.86886C88.0686 8.86886 90.9156 11.2052 90.9156 15.3364V15.3829C90.9156 19.5141 88.0841 21.8504 85.1133 21.8504C83.071 21.8504 81.7712 20.8138 80.8893 19.6533ZM92.8497 21.5874V4.36631H95.7121V21.5874H92.8497ZM107.023 14.4854C106.837 12.6442 105.754 11.2052 103.866 11.2052C102.118 11.2052 100.896 12.5514 100.632 14.4854H107.023ZM97.801 15.4138V15.3674C97.801 11.8087 100.323 8.86886 103.897 8.86886C107.858 8.86886 109.87 11.9789 109.87 15.5685C109.87 15.8316 109.839 16.0791 109.823 16.3731H100.663C100.973 18.4 102.412 19.545 104.253 19.545C105.646 19.545 106.636 19.0189 107.626 18.0596L109.297 19.545C108.121 20.953 106.497 21.8814 104.191 21.8814C100.586 21.8814 97.801 19.251 97.801 15.4138ZM111.804 9.1319H114.651V11.0196C115.455 9.90553 116.538 8.86886 118.457 8.86886C120.252 8.86886 121.505 9.73533 122.155 11.066C123.176 9.7508 124.491 8.86886 126.379 8.86886C129.102 8.86886 130.758 10.5863 130.758 13.6344V21.5874H127.895V14.5009C127.895 12.5204 126.982 11.4528 125.373 11.4528C123.811 11.4528 122.712 12.5359 122.712 14.5473V21.5874H119.865V14.4854C119.865 12.5514 118.921 11.4683 117.343 11.4683C115.765 11.4683 114.682 12.6442 114.682 14.5783V21.5874H111.835L111.804 9.1319ZM133.357 5.06258H134.58V12.7061H145.147V5.06258H146.37V21.5874H145.147V13.8511H134.564V21.5874H133.342V5.06258H133.357ZM173.153 21.5874V4.36631H174.313V21.5874H173.153ZM178.166 18.4929V10.6018H176.418V9.53419H178.166V5.69696H179.327V9.54966H183.551V10.6173H179.327V18.3846C179.327 20.102 180.348 20.7209 181.725 20.7209C182.313 20.7209 182.808 20.5972 183.489 20.3032V21.3863C182.87 21.6802 182.204 21.8195 181.524 21.8195C179.682 21.804 178.166 20.7828 178.166 18.4929ZM185.732 4.36631H186.893V11.8087C187.697 10.3852 189.043 9.28662 191.241 9.28662C194.289 9.28662 196.053 11.36 196.053 14.2379V21.5874H194.892V14.439C194.892 11.9634 193.5 10.3233 191.07 10.3233C188.703 10.3233 186.893 12.1181 186.893 14.6247V21.5874H185.732V4.36631ZM198.342 5.4494H197.662V6.26945H198.327C198.652 6.26945 198.869 6.13019 198.869 5.85169C198.884 5.60412 198.683 5.4494 198.342 5.4494ZM198.636 6.53248L199.348 7.46085H198.915L198.25 6.59437H197.662V7.46085H197.321V5.13994H198.358C198.869 5.13994 199.224 5.40298 199.224 5.83621C199.24 6.22303 198.992 6.43965 198.636 6.53248ZM198.219 4.30442C197.043 4.30442 196.161 5.23278 196.161 6.36228C196.161 7.49179 197.027 8.40468 198.203 8.40468C199.364 8.40468 200.261 7.47632 200.261 6.34681C200.261 5.23278 199.379 4.30442 198.219 4.30442ZM198.219 8.60582C196.981 8.60582 195.975 7.61557 195.975 6.37776V6.36228C195.975 5.12447 196.981 4.10327 198.234 4.10327C199.472 4.10327 200.478 5.109 200.478 6.33134C200.478 6.33134 200.478 6.33134 200.478 6.34681C200.462 7.6001 199.457 8.60582 198.219 8.60582Z" fill="#69727D"/>
<path d="M16.6155 6.99661L16.5691 7.02756C12.4224 9.71981 8.49238 13.1083 4.71704 17.255C8.83278 19.6223 12.7938 22.4693 16.4299 25.9197C20.0659 22.4693 24.027 19.6223 28.1427 17.255L32.3977 0.0803223C26.7966 1.51928 21.5513 3.7783 16.6155 6.99661Z" fill="#69727D"/>
<path d="M0.462158 0.0803223C0.895394 1.82874 1.20485 3.02013 1.63808 4.75308C1.93206 5.91353 2.41172 7.89403 2.7057 9.06996C2.99968 10.2614 3.41744 12.0098 3.71142 13.2012C4.11371 14.8258 4.33033 15.6304 4.73262 17.255C5.86213 16.0172 7.02258 14.8258 8.22945 13.6653C9.69936 12.2728 11.2157 10.9576 12.8094 9.70434C13.1807 9.42583 13.5366 9.14732 13.9079 8.86881C14.2638 8.60577 14.6351 8.34274 14.991 8.09518C15.5326 7.72383 16.0896 7.36796 16.6311 6.98114C15.4707 6.22298 15.4088 6.20751 14.2174 5.54218C13.4592 5.12442 13.3045 4.93875 9.28159 3.05108C6.41914 1.70495 3.41744 0.823011 0.462158 0.0803223Z" fill="#69727D"/>
</g>
<defs>
<clipPath id="clip0_1_503">
<rect width="200" height="25.8394" fill="white" transform="translate(0.462158 0.0803223)"/>
</clipPath>
</defs>
</svg>
