<svg width="32" height="32" viewBox="0 0 32 32" fill="none" xmlns="http://www.w3.org/2000/svg">
<rect width="32" height="32" rx="4" fill="#2AB69B"/>
<path fill-rule="evenodd" clip-rule="evenodd" d="M15.7281 25.9137C15.8388 25.9715 15.9627 26.0009 16.0865 26C16.2103 25.999 16.3331 25.9686 16.4449 25.9097L20.0128 24.0025C21.0245 23.4631 21.8168 22.8601 22.435 22.1579C23.779 20.6282 24.5129 18.6758 24.4998 16.6626L24.4575 10.022C24.4535 9.25711 23.9511 8.57461 23.2082 8.32652L16.5707 6.09956C16.1711 5.96424 15.7331 5.96718 15.3405 6.10643L8.72824 8.41281C7.9893 8.67071 7.496 9.35811 7.50002 10.124L7.54231 16.7597C7.5554 18.7758 8.31448 20.7194 9.68062 22.2335C10.3048 22.9258 11.1041 23.52 12.127 24.0505L15.7281 25.9137ZM14.7836 18.1089C14.9326 18.2521 15.1259 18.3227 15.3192 18.3207C15.5125 18.3198 15.7047 18.2472 15.8517 18.1021L19.7508 14.2581C20.0438 13.9688 20.0408 13.504 19.7448 13.2187C19.4478 12.9333 18.9696 12.9353 18.6766 13.2245L15.3081 16.5449L13.9289 15.2191C13.6319 14.9337 13.1547 14.9367 12.8607 15.226C12.5677 15.5152 12.5708 15.98 12.8678 16.2654L14.7836 18.1089Z" fill="white"/>
</svg>
